<svg id="Layer_1" data-name="Layer 1" xmlns="http://www.w3.org/2000/svg" xmlns:xlink="http://www.w3.org/1999/xlink" viewBox="0 0 205.31 46"><defs><style>.cls-1{fill:none;}.cls-2{fill:#fff;}.cls-3{clip-path:url(#clip-path);}</style><clipPath id="clip-path" transform="translate(-0.88 -1.25)"><rect class="cls-1" x="0.88" y="1.25" width="205.31" height="46"/></clipPath></defs><title>Logo</title><polygon class="cls-2" points="92 9.46 96.3 6.29 81.92 6.29 81.92 25.3 96.3 25.3 96.3 22.13 86.03 22.13 86.03 17.27 94.78 17.27 94.78 14.1 86.03 14.1 86.03 9.46 92 9.46"/><g class="cls-3"><path class="cls-2" d="M72,15H67V10.71h8l4.29-3.17H62.86v19h8.56c4.81,0,7.56-2.18,7.56-6C79,17,76.48,15,72,15m-.71,8.43H67V18.12h4.28c2.6,0,3.81.88,3.81,2.63s-1.28,2.63-3.81,2.63" transform="translate(-0.88 -1.25)"/><path class="cls-2" d="M108.81,7.54H101v19h4.1V21.16h3.72c5,0,8.1-2.62,8.1-6.82s-3.1-6.8-8.1-6.8M108.73,18h-3.64V10.71h3.64c2.62,0,4.07,1.29,4.07,3.64S111.35,18,108.73,18" transform="translate(-0.88 -1.25)"/><path class="cls-2" d="M55.82,22.43a7.35,7.35,0,0,1-3.54.89A6.12,6.12,0,0,1,45.9,17a6.12,6.12,0,0,1,6.38-6.27A6.22,6.22,0,0,1,56,11.94L59,9.77l-.19-.17a9.88,9.88,0,0,0-6.64-2.31A10.52,10.52,0,0,0,44.84,10a9.45,9.45,0,0,0-2.87,7,9.77,9.77,0,0,0,2.86,7,10.31,10.31,0,0,0,7.26,2.81,9.76,9.76,0,0,0,7.29-2.91l-2.65-1.95Z" transform="translate(-0.88 -1.25)"/><path class="cls-2" d="M32.46,17a15.6,15.6,0,0,0-.25-2.83l-3.4,2.51c0,.11,0,.22,0,.32a12.16,12.16,0,1,1-5.3-10l3.07-2.27A15.8,15.8,0,1,0,32.46,17" transform="translate(-0.88 -1.25)"/><path class="cls-2" d="M29.17,7.39a15.78,15.78,0,0,1,1.89,3.14L16.67,21.13l-6-3.77V12.83l6,3.77Z" transform="translate(-0.88 -1.25)"/><path class="cls-2" d="M134.61,15h-5V10.71h10.73V7.54H125.52v19h8.56c4.81,0,7.56-2.18,7.56-6,0-3.63-2.5-5.63-7-5.63m-.71,8.43h-4.28V18.12h4.28c2.6,0,3.81.88,3.81,2.63s-1.28,2.63-3.81,2.63" transform="translate(-0.88 -1.25)"/><polygon class="cls-2" points="191.06 25.26 186.9 25.26 186.9 6.25 191.06 6.25 191.06 14.24 193.32 14.24 199.43 6.25 204.15 6.25 196.89 15.3 205.31 25.26 199.79 25.26 193.61 17.79 191.06 17.79 191.06 25.26"/><path class="cls-2" d="M157.66,22.8h-8.73l-1.48,3.66h-4.4l8.2-18.86h4.39l8.05,18.86h-4.55Zm-1.38-3.43-3-7.32-3,7.32Z" transform="translate(-0.88 -1.25)"/><polygon class="cls-2" points="169.92 6.35 169.92 14.22 178.47 14.22 178.47 6.35 182.72 6.35 182.72 25.21 178.47 25.21 178.47 17.77 169.92 17.77 169.92 25.21 165.67 25.21 165.67 6.35 169.92 6.35"/><path class="cls-2" d="M49.44,32.7c4.55,0,7.4,2.81,7.4,7.3,0,4.18-2.79,7.25-7.4,7.25s-7.39-2.79-7.39-7.3c0-4.18,2.79-7.25,7.39-7.25m0,12.93c3.38,0,5.48-2.26,5.48-5.65,0-3.2-1.92-5.64-5.52-5.66C46,34.34,44,36.6,44,40c0,3.19,1.92,5.63,5.51,5.65" transform="translate(-0.88 -1.25)"/><polygon class="cls-2" points="65.04 41.43 59.71 41.43 59.71 45.8 58.03 45.8 58.03 35.69 59.71 35.69 59.71 39.92 65.04 39.92 65.04 35.69 66.72 35.69 66.72 45.8 65.04 45.8 65.04 41.43"/><path class="cls-2" d="M77.11,38.44H73.19l0,.77c-.26,7.53-1.77,8-3.25,8a3,3,0,0,1-.81-.1v-1.8a2.5,2.5,0,0,0,.51.06c1,0,1.82-.28,2-7l0-1.4h7.11V47.05H77.11Z" transform="translate(-0.88 -1.25)"/><path class="cls-2" d="M81.65,37.71a5.86,5.86,0,0,1,3.43-1c2.59,0,4.14.87,4.14,3.64v6.67H87.63V45.33a3.67,3.67,0,0,1-3.42,1.88c-2,0-3.33-1.07-3.33-3.13,0-2.23,1.58-2.87,4.26-2.87h2.41V40.4c0-1.72-1-2.2-2.47-2.2a3.87,3.87,0,0,0-3.43,1.9Zm5.9,5.92V42.54H85.2c-1.82,0-2.6.28-2.6,1.44,0,1,.68,1.67,2,1.67a2.67,2.67,0,0,0,2.91-2" transform="translate(-0.88 -1.25)"/><path class="cls-2" d="M91.78,47.05V36.94h1.68v7.52l5.7-7.52h1.47V47.05H99V39.47l-5.49,7.34-.19.24ZM99.4,31.91a2.8,2.8,0,0,1-3.07,2.87c-1.82,0-3.3-.85-3.3-2.87h1.62a1.42,1.42,0,0,0,1.64,1.56c.88,0,1.51-.3,1.51-1.56Z" transform="translate(-0.88 -1.25)"/><polygon class="cls-2" points="109.42 41.43 104.08 41.43 104.08 45.8 102.4 45.8 102.4 35.69 104.08 35.69 104.08 39.92 109.42 39.92 109.42 35.69 111.09 35.69 111.09 45.8 109.42 45.8 109.42 41.43"/></g></svg>