<svg xmlns="http://www.w3.org/2000/svg" width="44" height="30" viewBox="0 0 44 30">
  <defs>
    <style>
      .cls-1 {
        fill: #fff;
        fill-rule: evenodd;
      }
    </style>
  </defs>
  <path id="_0_" data-name="0+" class="cls-1" d="M2.4,20.819a11.767,11.767,0,0,0,1.963,4.148,8.113,8.113,0,0,0,3.056,2.463,9.408,9.408,0,0,0,3.963.815,10.028,10.028,0,0,0,3.7-.685,7.644,7.644,0,0,0,3.056-2.24,11.278,11.278,0,0,0,2.074-4.092,22.2,22.2,0,0,0,.759-6.277,21.8,21.8,0,0,0-.7-5.869,12.011,12.011,0,0,0-1.982-4.148A8.124,8.124,0,0,0,15.232,2.47a9.409,9.409,0,0,0-3.963-.815,9.794,9.794,0,0,0-3.7.7A7.664,7.664,0,0,0,4.528,4.618,11.444,11.444,0,0,0,2.472,8.71a22.034,22.034,0,0,0-.759,6.24A22.325,22.325,0,0,0,2.4,20.819ZM5.435,9.932A8.466,8.466,0,0,1,6.75,6.8a4.532,4.532,0,0,1,2-1.592,7.026,7.026,0,0,1,2.556-.444,6.6,6.6,0,0,1,2.426.537,5.086,5.086,0,0,1,2.056,1.685,9.1,9.1,0,0,1,1.407,3.129,19.092,19.092,0,0,1,.518,4.833,22.56,22.56,0,0,1-.463,5.036A8.466,8.466,0,0,1,15.935,23.1a4.511,4.511,0,0,1-2.019,1.592,7.072,7.072,0,0,1-2.537.444,6.186,6.186,0,0,1-2.463-.5A4.952,4.952,0,0,1,6.88,22.948a9.319,9.319,0,0,1-1.389-3.129,19.245,19.245,0,0,1-.519-4.87A22.577,22.577,0,0,1,5.435,9.932ZM32.824,22.874h2.963v-6.3h6.3V13.616h-6.3v-6.3H32.824v6.3h-6.3v2.963h6.3v6.3Z"/>
</svg>
