<svg xmlns="http://www.w3.org/2000/svg" width="591" height="210" viewBox="0 0 591 210">
  <defs>
    <style>
      .cls-1 {
        fill: #fff;
        fill-rule: evenodd;
      }
    </style>
  </defs>
  <path id="Быстро_и_без_комиссии_в_СберБанк_Онлайн" data-name="Быстро  и без комиссии  в СберБанк Онлайн" class="cls-1" d="M25.5,30.02a21.894,21.894,0,0,1,2.949.184,7.474,7.474,0,0,1,2.334.676,3.737,3.737,0,0,1,1.536,1.382,4.443,4.443,0,0,1,.553,2.365,4.98,4.98,0,0,1-.614,2.61,4.438,4.438,0,0,1-1.659,1.6,7.175,7.175,0,0,1-2.4.8,18.33,18.33,0,0,1-2.887.215H17.207V30.02H25.5ZM40.858,6.066H7.378V49.061H25.193a25.868,25.868,0,0,0,7.065-.921,16.224,16.224,0,0,0,5.621-2.764A13.141,13.141,0,0,0,41.6,40.83a13.839,13.839,0,0,0,1.352-6.265q0-13.758-17.385-13.758H17.207V15.279h11Zm8.293,42.995H61.867q7.187,0,10.628-2.917t3.44-8.63a12.387,12.387,0,0,0-.921-5.067A8.391,8.391,0,0,0,72.372,29.1a11.191,11.191,0,0,0-4.147-1.873,23.912,23.912,0,0,0-5.559-.584h-4.3V18.35H49.151V49.061Zm29.548,0h9.276V18.35H78.7V49.061ZM58.366,40.953V34.688h3.747a6.676,6.676,0,0,1,3.532.706,2.427,2.427,0,0,1,1.075,2.181,2.963,2.963,0,0,1-1.136,2.518,6.93,6.93,0,0,1-4.024.86H58.366Zm63.15,5.159V37.206a8.976,8.976,0,0,1-3.655,3.194,13.773,13.773,0,0,1-6.358,1.29,9.443,9.443,0,0,1-6.02-1.75,6.289,6.289,0,0,1-2.212-5.252V32.907q0-7.186,8.109-7.186a10.658,10.658,0,0,1,5.928,1.5,13.944,13.944,0,0,1,3.9,3.839V20.377a12.876,12.876,0,0,0-4.116-1.935,21.5,21.5,0,0,0-5.713-.829,22.533,22.533,0,0,0-7.249.983,15.429,15.429,0,0,0-5.559,3.071A13.573,13.573,0,0,0,95.009,26.7a17.857,17.857,0,0,0-1.259,6.941,17.448,17.448,0,0,0,1.321,7.063,14.192,14.192,0,0,0,3.624,5.037,15.127,15.127,0,0,0,5.5,3.04,22.836,22.836,0,0,0,6.941,1.014,15.806,15.806,0,0,0,3.44-.369,19.673,19.673,0,0,0,3.041-.921,14.492,14.492,0,0,0,2.4-1.2,7.237,7.237,0,0,0,1.505-1.2h0Zm13.022,2.948h9.215v-22.6h9.767V18.35H125.2v8.108h9.337v22.6Zm24.388,12.653h9.214V44.7a9.407,9.407,0,0,0,3.317,3.593,10.288,10.288,0,0,0,5.714,1.443,16.246,16.246,0,0,0,5.559-.921,10.965,10.965,0,0,0,4.392-2.918,13.586,13.586,0,0,0,2.857-5.159,25.477,25.477,0,0,0,1.014-7.708,21.031,21.031,0,0,0-1.014-6.941,12.793,12.793,0,0,0-2.8-4.73,10.8,10.8,0,0,0-4.208-2.7,15.44,15.44,0,0,0-5.191-.86,12.938,12.938,0,0,0-4.085.584,9.589,9.589,0,0,0-2.98,1.566,9.052,9.052,0,0,0-2,2.181,9.6,9.6,0,0,0-1.137,2.426v-6.2h-8.661V61.714Zm9.214-29.237a7.4,7.4,0,0,1,1.69-4.852q1.566-1.719,5.252-1.72a6.79,6.79,0,0,1,4.822,1.689q1.812,1.69,1.812,5.743,0,4.546-1.627,6.419t-5.314,1.873a6.513,6.513,0,0,1-4.915-1.781q-1.721-1.781-1.72-5.4V32.477ZM199.316,21.7Q194.8,25.721,194.8,33.644a18.592,18.592,0,0,0,1.229,7.063,13.95,13.95,0,0,0,3.409,5.037,14.17,14.17,0,0,0,5.16,3.04,20.2,20.2,0,0,0,6.543,1.014,22.9,22.9,0,0,0,7.064-1.014,14.014,14.014,0,0,0,5.314-3.04,13.39,13.39,0,0,0,3.348-5.006,19.05,19.05,0,0,0,1.167-6.971,18.635,18.635,0,0,0-1.228-7.063,14,14,0,0,0-3.41-5.037,14.188,14.188,0,0,0-5.16-3.04,20.211,20.211,0,0,0-6.542-1.014Q203.831,17.675,199.316,21.7Zm5.007,11.885q0-4.176,1.843-6.019a7.061,7.061,0,0,1,5.221-1.843,7.2,7.2,0,0,1,5.13,1.873q2,1.874,2,6.05v0.184q0,4.178-1.842,6.019a7.065,7.065,0,0,1-5.222,1.843,7.238,7.238,0,0,1-5.16-1.843q-1.968-1.843-1.966-6.081V33.583ZM6.088,120.577H15.3l12.163-18.672v18.672h9.276V89.867H27.528L15.364,108.355V89.867H6.088v30.71ZM88.712,72.792a8.429,8.429,0,0,1-2.4.768q-1.474.276-3.317,0.522t-3.993.522q-2.151.276-4.484,0.706a21.849,21.849,0,0,0-6.88,2.426,14.359,14.359,0,0,0-4.914,4.7,22.37,22.37,0,0,0-2.949,7.524,51.662,51.662,0,0,0-.983,10.841,31.02,31.02,0,0,0,1.2,9.182,16.994,16.994,0,0,0,3.409,6.327,13.5,13.5,0,0,0,5.345,3.685,21.129,21.129,0,0,0,13.576.153,13.182,13.182,0,0,0,5.007-3.1,13.681,13.681,0,0,0,3.164-5.129,20.994,20.994,0,0,0,1.106-7.125,18.654,18.654,0,0,0-1.167-7.033A12.251,12.251,0,0,0,87.3,93.153a11.886,11.886,0,0,0-4.484-2.518,17.619,17.619,0,0,0-5.16-.768,17.138,17.138,0,0,0-3.9.4A13.73,13.73,0,0,0,70.774,91.3,10.671,10.671,0,0,0,68.5,92.8a12.038,12.038,0,0,0-1.72,1.835,21.058,21.058,0,0,1,.983-4.721,7.6,7.6,0,0,1,1.966-3.1,8.338,8.338,0,0,1,3.409-1.809,33.231,33.231,0,0,1,5.252-.981q3.746-.429,6.573-1.014a16.443,16.443,0,0,0,3.747-1.075V72.792Zm-18.644,26.9a7.578,7.578,0,0,1,5.314-1.72,6.463,6.463,0,0,1,4.976,1.85q1.719,1.852,1.72,5.55a10.551,10.551,0,0,1-.522,3.547,6.158,6.158,0,0,1-1.474,2.374,5.841,5.841,0,0,1-2.242,1.356,8.651,8.651,0,0,1-2.764.432,6.88,6.88,0,0,1-3.01-.619,6.032,6.032,0,0,1-2.15-1.7,7.382,7.382,0,0,1-1.29-2.537,10.738,10.738,0,0,1-.43-3.064Q68.194,101.414,70.067,99.694Zm53.844,9.017a9.7,9.7,0,0,1-3.993,3.159,15.816,15.816,0,0,1-6.757,1.275,10.349,10.349,0,0,1-5.928-1.427,6.107,6.107,0,0,1-2.55-4.1h21.993v-2.579q0-7.862-3.932-11.885T111.687,89.13a18.4,18.4,0,0,0-6.7,1.167,14.767,14.767,0,0,0-5.1,3.225,13.974,13.974,0,0,0-3.225,5.006A18.134,18.134,0,0,0,95.53,105.1a18.732,18.732,0,0,0,1.2,6.91,13.7,13.7,0,0,0,3.41,5.1,14.371,14.371,0,0,0,5.375,3.1,22.781,22.781,0,0,0,7.157,1.044,19.769,19.769,0,0,0,3.685-.338,21.947,21.947,0,0,0,3.318-.891,16.11,16.11,0,0,0,2.641-1.2,6.641,6.641,0,0,0,1.6-1.2v-8.914Zm-8.324-10.184a5.4,5.4,0,0,1,1.69,3.133H104.868a6.08,6.08,0,0,1,2.3-3.286,7.2,7.2,0,0,1,4.208-1.136A5.983,5.983,0,0,1,115.587,98.527Zm15.2,18.979a7.388,7.388,0,0,0,1.812,1.2,21.6,21.6,0,0,0,2.887,1.2,26.981,26.981,0,0,0,3.533.921,19.956,19.956,0,0,0,3.808.369q7.433,0,11.426-2.58a8.11,8.11,0,0,0,3.993-7.186,6.146,6.146,0,0,0-1.72-4.73,9.74,9.74,0,0,0-4.853-2.211,9.719,9.719,0,0,0,3.9-2.58,6.669,6.669,0,0,0,1.567-4.668,6.6,6.6,0,0,0-3.41-5.835q-3.409-2.149-10.474-2.15h-0.368a26.847,26.847,0,0,0-6.512.737,15.559,15.559,0,0,0-4.73,1.9v10.687a13.056,13.056,0,0,1,11.242-5.221,7.5,7.5,0,0,1,3.716.667,1.922,1.922,0,0,1,1.075,1.636,1.814,1.814,0,0,1-1.136,1.788,8.229,8.229,0,0,1-3.287.516h-5.037v6.388h5.959a7.651,7.651,0,0,1,3.655.614,1.964,1.964,0,0,1,1.013,1.781,1.89,1.89,0,0,1-1.535,1.812,14.709,14.709,0,0,1-4.485.522,19.9,19.9,0,0,1-7.586-1.259,10.26,10.26,0,0,1-4.454-3.163v8.844Zm48.96,3.071h9.215V108.662h4.3l8.231,11.915h11.058l-11.672-16.242L211.02,89.867H200.884l-7.556,11.178h-4.361V89.867h-9.215v30.71Zm38.179-27.363q-4.515,4.024-4.515,11.947a18.593,18.593,0,0,0,1.229,7.063,13.969,13.969,0,0,0,3.409,5.037,14.179,14.179,0,0,0,5.16,3.04,20.2,20.2,0,0,0,6.543,1.013,22.889,22.889,0,0,0,7.064-1.013,14.022,14.022,0,0,0,5.314-3.04,13.4,13.4,0,0,0,3.348-5.006,19.052,19.052,0,0,0,1.167-6.972,18.636,18.636,0,0,0-1.228-7.063,14,14,0,0,0-3.41-5.037,14.188,14.188,0,0,0-5.16-3.04,20.211,20.211,0,0,0-6.542-1.014Q222.446,89.192,217.931,93.214Zm5.007,11.885q0-4.176,1.843-6.019A7.062,7.062,0,0,1,230,97.237a7.2,7.2,0,0,1,5.129,1.873q1.995,1.874,2,6.05v0.184q0,4.177-1.842,6.019a7.063,7.063,0,0,1-5.222,1.843,7.236,7.236,0,0,1-5.16-1.843q-1.966-1.842-1.966-6.081V105.1Zm55.656,15.478h9.214V89.867h-9.276l-8.17,12.468-8.539-12.468h-9.337v30.71H261.7V102.519l7.31,10.749h2.273l7.311-10.749v18.058Zm16.893,0H304.7l12.163-18.672v18.672h9.277V89.867h-9.215l-12.163,18.488V89.867h-9.276v30.71Zm64.194-2.948v-8.906a8.981,8.981,0,0,1-3.655,3.194,13.772,13.772,0,0,1-6.358,1.29,9.448,9.448,0,0,1-6.021-1.751,6.29,6.29,0,0,1-2.211-5.251v-1.781q0-7.187,8.109-7.187a10.658,10.658,0,0,1,5.928,1.5,13.941,13.941,0,0,1,3.9,3.839V91.894a12.876,12.876,0,0,0-4.116-1.935,21.5,21.5,0,0,0-5.713-.829,22.533,22.533,0,0,0-7.249.983,15.423,15.423,0,0,0-5.559,3.071,13.56,13.56,0,0,0-3.563,5.037,17.858,17.858,0,0,0-1.26,6.941,17.451,17.451,0,0,0,1.321,7.063,14.206,14.206,0,0,0,3.624,5.037,15.147,15.147,0,0,0,5.5,3.04,22.834,22.834,0,0,0,6.942,1.013,15.794,15.794,0,0,0,3.44-.368,19.761,19.761,0,0,0,3.041-.921,14.523,14.523,0,0,0,2.4-1.2,7.224,7.224,0,0,0,1.5-1.2h0Zm30.654,0v-8.906a8.985,8.985,0,0,1-3.656,3.194,13.769,13.769,0,0,1-6.358,1.29,9.445,9.445,0,0,1-6.02-1.751,6.29,6.29,0,0,1-2.211-5.251v-1.781q0-7.187,8.108-7.187a10.661,10.661,0,0,1,5.929,1.5,13.937,13.937,0,0,1,3.9,3.839V91.894a12.87,12.87,0,0,0-4.115-1.935,21.511,21.511,0,0,0-5.714-.829,22.531,22.531,0,0,0-7.248.983,15.428,15.428,0,0,0-5.56,3.071,13.572,13.572,0,0,0-3.563,5.037,17.858,17.858,0,0,0-1.259,6.941,17.434,17.434,0,0,0,1.321,7.063,14.194,14.194,0,0,0,3.624,5.037,15.139,15.139,0,0,0,5.5,3.04,22.829,22.829,0,0,0,6.942,1.013,15.8,15.8,0,0,0,3.44-.368,19.8,19.8,0,0,0,3.041-.921,14.563,14.563,0,0,0,2.4-1.2,7.278,7.278,0,0,0,1.5-1.2h0Zm5.466,2.948h9.215l12.163-18.672v18.672h9.276V89.867H417.24l-12.163,18.488V89.867H395.8v30.71Zm38.271,0h9.214l12.164-18.672v18.672h9.276V89.867h-9.215l-12.163,18.488V89.867h-9.276v30.71ZM7.194,192.094H20.647q6.326,0,9.276-2.245t2.949-6.857a9.477,9.477,0,0,0-.522-3.382,6.068,6.068,0,0,0-1.413-2.214,5.7,5.7,0,0,0-2.15-1.292,13.7,13.7,0,0,0-2.734-.615,6.721,6.721,0,0,0,3.9-2.422,7.621,7.621,0,0,0,1.382-4.754,6.137,6.137,0,0,0-2.3-5.121q-2.3-1.808-8.14-1.809H7.194v30.711Zm5.1-4.422v-9.336h9.215a9.254,9.254,0,0,1,4.607.958q1.659,0.958,1.659,3.74a3.93,3.93,0,0,1-1.689,3.494q-1.69,1.145-5.5,1.144H12.293Zm0-13.636v-8.169l7.986-.061a10.68,10.68,0,0,1,4.423.706q1.474,0.707,1.474,2.979a3.745,3.745,0,0,1-1.72,3.562,9.267,9.267,0,0,1-4.607.983H12.293Zm80.29,5.1a15.434,15.434,0,0,1-2.4,3.286,16.118,16.118,0,0,1-3.471,2.764,18.435,18.435,0,0,1-4.484,1.9,19.848,19.848,0,0,1-5.437.706,18.075,18.075,0,0,1-7.065-1.412,14.685,14.685,0,0,1-5.129-3.655,15.347,15.347,0,0,1-3.1-5.405,20.931,20.931,0,0,1-1.044-6.726,20.181,20.181,0,0,1,1.167-7.032,15.7,15.7,0,0,1,3.317-5.436,14.453,14.453,0,0,1,5.252-3.5,18.8,18.8,0,0,1,6.972-1.228,15.078,15.078,0,0,1,4.607.706,18.322,18.322,0,0,1,4.054,1.842,17.177,17.177,0,0,1,3.256,2.58,16.241,16.241,0,0,1,2.334,2.979v-8.66a9.858,9.858,0,0,0-2.089-1.5,20.016,20.016,0,0,0-3.164-1.413,25.345,25.345,0,0,0-4.085-1.044,28.462,28.462,0,0,0-4.915-.4,25.236,25.236,0,0,0-9.43,1.658,20.51,20.51,0,0,0-7.065,4.607,19.833,19.833,0,0,0-4.454,6.971,24.513,24.513,0,0,0-1.536,8.814,25.725,25.725,0,0,0,1.567,9.213A19.312,19.312,0,0,0,60.7,186.72a19.793,19.793,0,0,0,7.034,4.422,28.022,28.022,0,0,0,14.621,1.044,26.992,26.992,0,0,0,4.484-1.32,18.868,18.868,0,0,0,3.471-1.782,10.176,10.176,0,0,0,2.273-1.965v-7.985Zm31.329-34.4a9.784,9.784,0,0,1-2.642.829q-1.72.339-3.655,0.553t-3.778.369q-1.843.153-3.01,0.337a18.034,18.034,0,0,0-6.788,2.212,12.628,12.628,0,0,0-4.546,4.729,23.607,23.607,0,0,0-2.549,7.647,64.344,64.344,0,0,0-.8,10.9q0,10.628,3.809,15.509t11.671,4.883q7.311,0,11.212-4.084t3.9-12.315a21.191,21.191,0,0,0-1.013-7.033,11.75,11.75,0,0,0-2.826-4.607,10.585,10.585,0,0,0-4.331-2.518,18.932,18.932,0,0,0-5.529-.768,15.226,15.226,0,0,0-7.126,1.659,14.067,14.067,0,0,0-5.344,4.975,46.4,46.4,0,0,1,.983-6.6,13.474,13.474,0,0,1,2.211-5.006,10.669,10.669,0,0,1,4.147-3.317,19.465,19.465,0,0,1,6.788-1.535q3.809-.308,6.051-0.553a9.493,9.493,0,0,0,3.164-.737v-5.528ZM104.192,168.6a10.632,10.632,0,0,1,7.5-2.549,9.749,9.749,0,0,1,7.064,2.488q2.58,2.487,2.58,8.384a15.177,15.177,0,0,1-.737,5.036,8.738,8.738,0,0,1-2.088,3.409,7.95,7.95,0,0,1-3.164,1.9,12.841,12.841,0,0,1-3.962.584q-4.977,0-7.464-3.225t-2.488-8.691Q101.428,171.149,104.192,168.6Zm36.859-6.848a13.1,13.1,0,0,0-4.792,2.948,13.765,13.765,0,0,0-3.194,4.944,19.041,19.041,0,0,0-1.168,6.972q0,8.107,3.993,12.1t11.3,3.992a19.331,19.331,0,0,0,7.341-1.167,10.161,10.161,0,0,0,3.962-2.58V183a9.807,9.807,0,0,1-4.054,3.746,15.1,15.1,0,0,1-7.249,1.536,10.147,10.147,0,0,1-7.126-2.365q-2.58-2.364-2.949-7.34h23.528v-3.316q0-6.879-3.594-10.688t-9.982-3.808A17.854,17.854,0,0,0,141.051,161.752Zm12.1,5.712q2.4,2.273,2.4,6.695v0.061H137.181a10.219,10.219,0,0,1,3.01-6.756,9.893,9.893,0,0,1,6.88-2.273A8.49,8.49,0,0,1,153.153,167.464Zm14.988,35.686h5.1V187.387a11.352,11.352,0,0,0,3.962,3.762,12.4,12.4,0,0,0,6.542,1.621,17.488,17.488,0,0,0,5.9-.922,10.688,10.688,0,0,0,4.392-2.917,13.2,13.2,0,0,0,2.764-5.16,27.01,27.01,0,0,0,.953-7.708q0-8.046-3.625-11.67t-9.767-3.624a12.949,12.949,0,0,0-7.434,1.9,10.748,10.748,0,0,0-3.931,4.587v-5.869h-4.853V203.15Zm5.1-28.131a10.384,10.384,0,0,1,2.549-7.156q2.426-2.547,7.218-2.549a13.151,13.151,0,0,1,3.932.556,7.12,7.12,0,0,1,3.041,1.853,8.554,8.554,0,0,1,1.935,3.427,17.465,17.465,0,0,1,.675,5.218q0,6.423-2.3,9.139t-7.341,2.717a9.509,9.509,0,0,1-7.034-2.671,10.087,10.087,0,0,1-2.672-7.463v-3.071Zm46.687-6.265q6.635,0,9.706,1.9t3.071,6.756q0,5.406-3.225,7.586t-9.368,2.18h-8.232V168.754h8.048ZM230,154.013l6.758-4.914H206.35v43H220.3q8.846,0,13.515-3.593t4.669-10.718q0-7.246-4.546-10.595T220.3,163.84h-8.416v-9.827H230Zm17.262,16.952a12.628,12.628,0,0,1,4.208-4.177,11.721,11.721,0,0,1,6.235-1.6,14.01,14.01,0,0,1,3.041.308,5.854,5.854,0,0,1,2.365,1.074,5.11,5.11,0,0,1,1.536,2.058,8.314,8.314,0,0,1,.553,3.255v2.457H257.89a33.648,33.648,0,0,0-5.467.4,11.275,11.275,0,0,0-4.054,1.413,6.877,6.877,0,0,0-2.55,2.7,8.946,8.946,0,0,0-.89,4.207q0,4.731,2.764,7.125a10.862,10.862,0,0,0,7.372,2.4,12.693,12.693,0,0,0,6.419-1.566,9.412,9.412,0,0,0,3.962-4.146v5.221H270.3V171.825a14.011,14.011,0,0,0-.861-5.252,8.174,8.174,0,0,0-2.487-3.409,10,10,0,0,0-3.963-1.842,22.979,22.979,0,0,0-5.283-.553,19.76,19.76,0,0,0-6.235.891,14.651,14.651,0,0,0-4.208,2.057v7.248Zm4.423,15.478a4.772,4.772,0,0,1-1.536-3.685q0-2.64,1.874-3.5a15.55,15.55,0,0,1,6.051-.86H265.2v3.317a6.483,6.483,0,0,1-.645,1.842,6.943,6.943,0,0,1-1.567,2,9.106,9.106,0,0,1-2.672,1.627,10.329,10.329,0,0,1-3.962.676A6.7,6.7,0,0,1,251.686,186.443Zm49.267,5.651h5.1V161.383h-5.1V174.22H284.735V161.383h-5.1v30.711h5.1V178.766h16.218v13.328Zm14.927,0h5.1V178.52h5.529l11.057,13.574h6.451l-13.269-16.238,11.242-14.473h-5.836l-9.645,12.837h-5.529V161.383h-5.1v30.711Zm49.974-12.315a19.159,19.159,0,0,0,4.484,6.941,20.111,20.111,0,0,0,7.065,4.422,26.365,26.365,0,0,0,9.368,1.566,25.3,25.3,0,0,0,9.4-1.658,20.45,20.45,0,0,0,7.095-4.607,19.844,19.844,0,0,0,4.454-6.971,24.539,24.539,0,0,0,1.536-8.814,25.718,25.718,0,0,0-1.567-9.213,19.124,19.124,0,0,0-4.484-6.972,20.07,20.07,0,0,0-7.1-4.422,26.442,26.442,0,0,0-9.338-1.566,25.233,25.233,0,0,0-9.429,1.658,20.509,20.509,0,0,0-7.065,4.607,19.839,19.839,0,0,0-4.454,6.971,24.517,24.517,0,0,0-1.535,8.814A25.669,25.669,0,0,0,365.854,179.779Zm5.345-16.185a14.9,14.9,0,0,1,8.569-8.936,19.948,19.948,0,0,1,14.191.092,14.827,14.827,0,0,1,8.446,9.09,20.7,20.7,0,0,1,1.075,6.756,20.188,20.188,0,0,1-1.167,7.033A15.7,15.7,0,0,1,399,183.065a14.49,14.49,0,0,1-5.222,3.5,18.538,18.538,0,0,1-6.941,1.228,18.161,18.161,0,0,1-7.249-1.351,14.825,14.825,0,0,1-8.447-9.09,20.669,20.669,0,0,1-1.075-6.757A20.391,20.391,0,0,1,371.2,163.594Zm67.3,28.5h5.1V161.383h-5.1V174.22H422.278V161.383h-5.1v30.711h5.1V178.766H438.5v13.328Zm34.954,0h5.1V161.383H456.925l-0.123,4.249q-0.185,5.11-.461,8.68t-0.706,5.942a20.588,20.588,0,0,1-.952,3.7,6.2,6.2,0,0,1-1.168,2,2.689,2.689,0,0,1-1.351.831,7.036,7.036,0,0,1-1.5.154,6.817,6.817,0,0,1-1.536-.185v5.409a8.864,8.864,0,0,0,2.457.3,11.592,11.592,0,0,0,2.212-.214,5.362,5.362,0,0,0,2.15-.983,7.783,7.783,0,0,0,1.966-2.3,17.171,17.171,0,0,0,1.658-4.238A48.378,48.378,0,0,0,460.8,178q0.49-4.023.676-9.736l0.061-2.334H473.45v26.166Zm15.418-21.129a12.628,12.628,0,0,1,4.208-4.177,11.721,11.721,0,0,1,6.235-1.6,14.01,14.01,0,0,1,3.041.308,5.854,5.854,0,0,1,2.365,1.074,5.11,5.11,0,0,1,1.536,2.058,8.314,8.314,0,0,1,.553,3.255v2.457H499.5a33.648,33.648,0,0,0-5.467.4,11.275,11.275,0,0,0-4.054,1.413,6.884,6.884,0,0,0-2.55,2.7,8.946,8.946,0,0,0-.89,4.207q0,4.731,2.764,7.125a10.862,10.862,0,0,0,7.372,2.4,12.693,12.693,0,0,0,6.419-1.566,9.42,9.42,0,0,0,3.963-4.146v5.221h4.853V171.825a14.033,14.033,0,0,0-.86-5.252,8.185,8.185,0,0,0-2.488-3.409,10,10,0,0,0-3.963-1.842,22.979,22.979,0,0,0-5.283-.553,19.76,19.76,0,0,0-6.235.891,14.651,14.651,0,0,0-4.208,2.057v7.248Zm4.423,15.478a4.772,4.772,0,0,1-1.536-3.685q0-2.64,1.874-3.5a15.55,15.55,0,0,1,6.051-.86h7.126v3.317a6.483,6.483,0,0,1-.645,1.842,6.943,6.943,0,0,1-1.567,2,9.106,9.106,0,0,1-2.672,1.627,10.329,10.329,0,0,1-3.962.676A6.7,6.7,0,0,1,493.291,186.443Zm32.5,5.651,0.553-.737,16.709-22.3v23.033h5.1V161.383h-4.484L526.34,184.232V161.383h-5.1v30.711h4.546Zm13.761-46a6.887,6.887,0,0,1-.338,2.334,3.374,3.374,0,0,1-.952,1.444,3.583,3.583,0,0,1-1.475.737,7.553,7.553,0,0,1-1.843.215,5.078,5.078,0,0,1-3.778-1.229,4.807,4.807,0,0,1-1.2-3.5H525.05a8.917,8.917,0,0,0,.8,3.962,7.742,7.742,0,0,0,2.15,2.7,8.644,8.644,0,0,0,3.163,1.566,14.845,14.845,0,0,0,3.9.491,12.352,12.352,0,0,0,3.471-.491,7.961,7.961,0,0,0,5.068-4.269,8.931,8.931,0,0,0,.8-3.962h-4.853Zm39.745,46.005h5.1V161.383h-5.1V174.22H563.075V161.383h-5.1v30.711h5.1V178.766h16.218v13.328Z"/>
</svg>
