<svg xmlns="http://www.w3.org/2000/svg" width="651" height="140" viewBox="0 0 651 140">
  <defs>
    <style>
      .cls-1 {
        fill: #fff;
        fill-rule: evenodd;
      }
    </style>
  </defs>
  <path id="Оставаться_на_связи_с_близкими_легко" data-name="Оставаться на связи с близкими — легко" class="cls-1" d="M9.013,40.584a20.6,20.6,0,0,0,4.822,7.462,21.616,21.616,0,0,0,7.6,4.755A28.344,28.344,0,0,0,31.5,54.486,27.2,27.2,0,0,0,41.609,52.7a22,22,0,0,0,7.629-4.953,21.346,21.346,0,0,0,4.789-7.5,26.378,26.378,0,0,0,1.651-9.477,27.667,27.667,0,0,0-1.684-9.906,20.571,20.571,0,0,0-4.822-7.5,21.573,21.573,0,0,0-7.629-4.755A28.42,28.42,0,0,0,31.5,6.937,27.121,27.121,0,0,0,21.364,8.72a22.052,22.052,0,0,0-7.6,4.953,21.324,21.324,0,0,0-4.789,7.5,26.358,26.358,0,0,0-1.651,9.477A27.592,27.592,0,0,0,9.013,40.584Zm5.746-17.4a16.024,16.024,0,0,1,9.214-9.609,19.535,19.535,0,0,1,7.464-1.354,19.549,19.549,0,0,1,7.794,1.453,15.947,15.947,0,0,1,9.082,9.774,22.254,22.254,0,0,1,1.156,7.264,21.722,21.722,0,0,1-1.255,7.562,16.9,16.9,0,0,1-3.567,5.844,15.576,15.576,0,0,1-5.614,3.764A19.946,19.946,0,0,1,31.569,49.2a19.528,19.528,0,0,1-7.794-1.453,15.947,15.947,0,0,1-9.082-9.774,22.223,22.223,0,0,1-1.156-7.264A21.937,21.937,0,0,1,14.759,23.183ZM88.9,50.457V44.052a10.564,10.564,0,0,1-3.93,4.028,12.83,12.83,0,0,1-6.836,1.651q-5.285,0-8.091-2.972t-2.807-9.378v-0.2q0-6.142,2.774-9.213T78,24.9a11.278,11.278,0,0,1,6.11,1.717,13.814,13.814,0,0,1,4.458,4.491V23.315A15.946,15.946,0,0,0,84.145,21.1,18.747,18.747,0,0,0,78,20.145,19.21,19.21,0,0,0,71.529,21.2a14.082,14.082,0,0,0-5.152,3.17,14.8,14.8,0,0,0-3.435,5.316,20.479,20.479,0,0,0-1.255,7.5q0,8.717,4.293,13.01t12.153,4.293a16.573,16.573,0,0,0,6.935-1.255A9.782,9.782,0,0,0,88.9,50.457h0Zm16.644,3.368h5.482V25.692h10.965V20.806H94.514v4.887h11.03V53.825Zm23.91-22.718a13.568,13.568,0,0,1,4.524-4.491,12.6,12.6,0,0,1,6.7-1.717,15.113,15.113,0,0,1,3.27.33,6.289,6.289,0,0,1,2.542,1.156,5.5,5.5,0,0,1,1.652,2.212,8.936,8.936,0,0,1,.594,3.5V34.74h-7.86a36.076,36.076,0,0,0-5.878.429,12.133,12.133,0,0,0-4.36,1.519,7.4,7.4,0,0,0-2.741,2.906,9.632,9.632,0,0,0-.957,4.524q0,5.086,2.972,7.661a11.677,11.677,0,0,0,7.926,2.576,13.647,13.647,0,0,0,6.9-1.684A10.125,10.125,0,0,0,149,48.212v5.613h5.218V32.032a15.085,15.085,0,0,0-.924-5.646,8.8,8.8,0,0,0-2.675-3.665,10.752,10.752,0,0,0-4.261-1.981,24.734,24.734,0,0,0-5.68-.594,21.243,21.243,0,0,0-6.7.957,15.755,15.755,0,0,0-4.524,2.212v7.793Zm4.755,16.642a5.132,5.132,0,0,1-1.651-3.962q0-2.839,2.014-3.764a16.723,16.723,0,0,1,6.506-.925h7.662v3.566a6.967,6.967,0,0,1-.693,1.981,7.441,7.441,0,0,1-1.685,2.146,9.79,9.79,0,0,1-2.873,1.75,11.1,11.1,0,0,1-4.26.726A7.2,7.2,0,0,1,134.209,47.75Zm30.052,6.076h14.465q6.8,0,9.974-2.414t3.17-7.373a10.2,10.2,0,0,0-.561-3.636,6.539,6.539,0,0,0-1.519-2.381,6.138,6.138,0,0,0-2.312-1.389,14.735,14.735,0,0,0-2.939-.661,7.225,7.225,0,0,0,4.194-2.6,8.2,8.2,0,0,0,1.486-5.111,6.6,6.6,0,0,0-2.477-5.506q-2.476-1.944-8.752-1.945H164.261v33.02Zm5.482-4.755V39.032h9.908a9.951,9.951,0,0,1,4.954,1.031q1.784,1.031,1.783,4.021a4.226,4.226,0,0,1-1.816,3.756q-1.818,1.23-5.912,1.23h-8.917Zm0-14.661V25.626l8.587-.066a11.474,11.474,0,0,1,4.755.759q1.585,0.76,1.586,3.2a4.027,4.027,0,0,1-1.85,3.83,9.968,9.968,0,0,1-4.954,1.057h-8.124Zm30.912-3.3a13.568,13.568,0,0,1,4.524-4.491,12.6,12.6,0,0,1,6.7-1.717,15.113,15.113,0,0,1,3.27.33,6.3,6.3,0,0,1,2.543,1.156,5.494,5.494,0,0,1,1.651,2.212,8.936,8.936,0,0,1,.594,3.5V34.74h-7.86a36.076,36.076,0,0,0-5.878.429,12.135,12.135,0,0,0-4.359,1.519,7.388,7.388,0,0,0-2.741,2.906,9.619,9.619,0,0,0-.958,4.524q0,5.086,2.972,7.661a11.681,11.681,0,0,0,7.926,2.576,13.647,13.647,0,0,0,6.9-1.684,10.133,10.133,0,0,0,4.261-4.458v5.613h5.218V32.032a15.084,15.084,0,0,0-.925-5.646,8.789,8.789,0,0,0-2.675-3.665,10.748,10.748,0,0,0-4.26-1.981,24.743,24.743,0,0,0-5.681-.594,21.248,21.248,0,0,0-6.7.957,15.755,15.755,0,0,0-4.524,2.212v7.793ZM205.41,47.75a5.132,5.132,0,0,1-1.651-3.962q0-2.839,2.015-3.764a16.72,16.72,0,0,1,6.506-.925h7.661v3.566a6.936,6.936,0,0,1-.693,1.981,7.454,7.454,0,0,1-1.684,2.146,9.8,9.8,0,0,1-2.874,1.75,11.1,11.1,0,0,1-4.26.726A7.2,7.2,0,0,1,205.41,47.75Zm37.45,6.076h5.482V25.692h10.964V20.806H231.83v4.887h11.03V53.825Zm49.273-16.939a7.354,7.354,0,0,0-2.609-3.3A10.793,10.793,0,0,0,285.23,31.9a33.444,33.444,0,0,0-5.911-.462h-7.6V20.806h-5.482v33.02H278.46A30.164,30.164,0,0,0,285.1,53.2a11.136,11.136,0,0,0,4.492-2.014,8.116,8.116,0,0,0,2.576-3.6,15.466,15.466,0,0,0,.825-5.382A14.092,14.092,0,0,0,292.133,36.886ZM286.981,45.5a4.427,4.427,0,0,1-1.652,2.08,7.214,7.214,0,0,1-2.84,1.057,24.388,24.388,0,0,1-4.095.3h-6.671V36.325h7a31.148,31.148,0,0,1,4.129.231,7.038,7.038,0,0,1,2.708.859,3.45,3.45,0,0,1,1.453,1.75,9.462,9.462,0,0,1,.5,2.972A9.162,9.162,0,0,1,286.981,45.5Zm38.639,4.953V44.052a10.567,10.567,0,0,1-3.93,4.028,12.835,12.835,0,0,1-6.837,1.651q-5.285,0-8.091-2.972t-2.807-9.378v-0.2q0-6.142,2.774-9.213t7.992-3.071a11.279,11.279,0,0,1,6.11,1.717,13.8,13.8,0,0,1,4.458,4.491V23.315a15.945,15.945,0,0,0-4.425-2.212,18.746,18.746,0,0,0-6.143-.957,19.215,19.215,0,0,0-6.473,1.057,14.094,14.094,0,0,0-5.152,3.17,14.8,14.8,0,0,0-3.434,5.316,20.479,20.479,0,0,0-1.255,7.5q0,8.717,4.293,13.01t12.153,4.293a16.575,16.575,0,0,0,6.936-1.255,9.788,9.788,0,0,0,3.831-2.774h0Zm28.533,3.368h5.482V20.806H347.284a30.69,30.69,0,0,0-6.672.627,11.148,11.148,0,0,0-4.524,2.014,7.87,7.87,0,0,0-2.543,3.6,16.057,16.057,0,0,0-.793,5.382,8.708,8.708,0,0,0,1.85,5.778,9.986,9.986,0,0,0,5.086,3.137l-9.445,12.482h6.34l8.983-11.887h8.587V53.825Zm0-28.133V37.646h-8.785q-3.765,0-5.416-1.453a4.976,4.976,0,0,1-1.717-3.764,8.881,8.881,0,0,1,.528-3.335,4.45,4.45,0,0,1,1.651-2.047,7.23,7.23,0,0,1,2.84-1.057,24.392,24.392,0,0,1,4.1-.3h6.8Zm56.141,28.133h5.482V20.806h-5.482v13.8H392.857v-13.8h-5.482v33.02h5.482V39.495h17.437V53.825Zm16.578-22.718a13.58,13.58,0,0,1,4.525-4.491,12.6,12.6,0,0,1,6.7-1.717,15.1,15.1,0,0,1,3.269.33,6.293,6.293,0,0,1,2.543,1.156,5.5,5.5,0,0,1,1.652,2.212,8.936,8.936,0,0,1,.594,3.5V34.74H438.3a36.076,36.076,0,0,0-5.878.429,12.133,12.133,0,0,0-4.36,1.519,7.4,7.4,0,0,0-2.741,2.906,9.619,9.619,0,0,0-.957,4.524q0,5.086,2.972,7.661a11.677,11.677,0,0,0,7.926,2.576,13.647,13.647,0,0,0,6.9-1.684,10.125,10.125,0,0,0,4.26-4.458v5.613h5.218V32.032a15.085,15.085,0,0,0-.924-5.646,8.791,8.791,0,0,0-2.676-3.665,10.741,10.741,0,0,0-4.26-1.981,24.734,24.734,0,0,0-5.68-.594,21.243,21.243,0,0,0-6.7.957,15.762,15.762,0,0,0-4.525,2.212v7.793Zm4.756,16.642a5.132,5.132,0,0,1-1.651-3.962q0-2.839,2.014-3.764A16.723,16.723,0,0,1,438.5,39.1h7.662v3.566a6.967,6.967,0,0,1-.693,1.981,7.458,7.458,0,0,1-1.685,2.146,9.79,9.79,0,0,1-2.873,1.75,11.1,11.1,0,0,1-4.26.726A7.2,7.2,0,0,1,431.628,47.75Zm71.927,2.708V44.052a10.56,10.56,0,0,1-3.93,4.028,12.829,12.829,0,0,1-6.836,1.651q-5.284,0-8.091-2.972t-2.807-9.378v-0.2q0-6.142,2.774-9.213t7.992-3.071a11.279,11.279,0,0,1,6.11,1.717,13.8,13.8,0,0,1,4.458,4.491V23.315A15.945,15.945,0,0,0,498.8,21.1a18.751,18.751,0,0,0-6.143-.957,19.215,19.215,0,0,0-6.473,1.057,14.086,14.086,0,0,0-5.152,3.17,14.8,14.8,0,0,0-3.434,5.316,20.479,20.479,0,0,0-1.255,7.5q0,8.717,4.293,13.01t12.153,4.293a16.578,16.578,0,0,0,6.936-1.255,9.776,9.776,0,0,0,3.83-2.774h0Zm8.256,3.368h14.465q6.8,0,9.974-2.414t3.17-7.373a10.2,10.2,0,0,0-.561-3.636,6.539,6.539,0,0,0-1.519-2.381,6.138,6.138,0,0,0-2.312-1.389,14.735,14.735,0,0,0-2.939-.661,7.225,7.225,0,0,0,4.194-2.6,8.191,8.191,0,0,0,1.486-5.111,6.6,6.6,0,0,0-2.477-5.506q-2.477-1.944-8.752-1.945H511.811v33.02Zm5.482-4.755V39.032H527.2a9.951,9.951,0,0,1,4.954,1.031q1.784,1.031,1.783,4.021a4.226,4.226,0,0,1-1.816,3.756q-1.818,1.23-5.912,1.23h-8.917Zm0-14.661V25.626l8.587-.066a11.474,11.474,0,0,1,4.755.759q1.586,0.76,1.586,3.2a4.027,4.027,0,0,1-1.85,3.83,9.966,9.966,0,0,1-4.953,1.057h-8.125Zm50.661,19.416h5.482V20.806H561.085a30.69,30.69,0,0,0-6.672.627,11.148,11.148,0,0,0-4.524,2.014,7.877,7.877,0,0,0-2.543,3.6,16.059,16.059,0,0,0-.792,5.382,8.708,8.708,0,0,0,1.849,5.778,9.986,9.986,0,0,0,5.086,3.137l-9.445,12.482h6.34l8.983-11.887h8.587V53.825Zm0-28.133V37.646h-8.785q-3.765,0-5.416-1.453a4.976,4.976,0,0,1-1.717-3.764,8.881,8.881,0,0,1,.528-3.335,4.45,4.45,0,0,1,1.651-2.047,7.23,7.23,0,0,1,2.84-1.057,24.392,24.392,0,0,1,4.1-.3h6.8Zm14.068,24.765a11.581,11.581,0,0,0,4.392,2.774,23.167,23.167,0,0,0,12.88.627,12.816,12.816,0,0,0,4.227-1.915,9.188,9.188,0,0,0,2.873-3.335,10.382,10.382,0,0,0,1.057-4.821,7.042,7.042,0,0,0-1.717-5.085,9.311,9.311,0,0,0-5.02-2.443,10.13,10.13,0,0,0,3.765-2.774A7.459,7.459,0,0,0,605.8,28.73a10.64,10.64,0,0,0-.562-3.566,6.243,6.243,0,0,0-1.882-2.708,9,9,0,0,0-3.468-1.717,20.246,20.246,0,0,0-5.317-.594h-0.132a24.163,24.163,0,0,0-7,.957,19.835,19.835,0,0,0-5.086,2.212v7.793A14.515,14.515,0,0,1,594.439,24.9q3.171,0.133,4.491,1.321a4.467,4.467,0,0,1,1.321,3.5,4.41,4.41,0,0,1-1.981,4.028A9.495,9.495,0,0,1,593.118,35h-3.963v4.359h4.954a12.863,12.863,0,0,1,5.878,1.057,3.832,3.832,0,0,1,1.982,3.7,4.587,4.587,0,0,1-2.213,4.16,10.875,10.875,0,0,1-5.647,1.453,15.961,15.961,0,0,1-7.629-1.651,10.975,10.975,0,0,1-4.458-4.028v6.406ZM620.6,53.825l0.594-.793L639.155,29.06V53.825h5.482V20.806h-4.822L621.189,45.372V20.806h-5.482v33.02H620.6ZM34.013,129.705V123.3a10.565,10.565,0,0,1-3.93,4.029,12.83,12.83,0,0,1-6.836,1.651q-5.285,0-8.091-2.972t-2.807-9.378v-0.2q0-6.141,2.774-9.212t7.992-3.071a11.273,11.273,0,0,1,6.11,1.717,13.809,13.809,0,0,1,4.458,4.49v-7.792a15.946,15.946,0,0,0-4.425-2.213,18.758,18.758,0,0,0-6.143-.957,19.22,19.22,0,0,0-6.473,1.056,14.092,14.092,0,0,0-5.152,3.17,14.8,14.8,0,0,0-3.435,5.317A20.478,20.478,0,0,0,6.8,116.431q0,8.718,4.293,13.01t12.153,4.293a16.57,16.57,0,0,0,6.935-1.255,9.788,9.788,0,0,0,3.831-2.774h0Zm53.17-47.549a10.519,10.519,0,0,1-2.84.892q-1.85.364-3.93,0.594t-4.062.4q-1.981.166-3.237,0.363a19.39,19.39,0,0,0-7.3,2.377,13.582,13.582,0,0,0-4.888,5.085,25.385,25.385,0,0,0-2.741,8.222,69.186,69.186,0,0,0-.859,11.722q0,11.427,4.1,16.675t12.55,5.251q7.859,0,12.054-4.392T90.221,116.1a22.793,22.793,0,0,0-1.09-7.562,12.625,12.625,0,0,0-3.038-4.953,11.38,11.38,0,0,0-4.656-2.707,20.333,20.333,0,0,0-5.945-.826,16.383,16.383,0,0,0-7.662,1.783,15.132,15.132,0,0,0-5.746,5.35,49.959,49.959,0,0,1,1.057-7.1A14.483,14.483,0,0,1,65.518,94.7a11.462,11.462,0,0,1,4.458-3.566,20.928,20.928,0,0,1,7.3-1.651q4.095-.33,6.506-0.594a10.193,10.193,0,0,0,3.4-.793V82.156Zm-21.2,25.657a11.424,11.424,0,0,1,8.058-2.741,10.486,10.486,0,0,1,7.6,2.675q2.774,2.675,2.774,9.014a16.343,16.343,0,0,1-.793,5.416,9.4,9.4,0,0,1-2.246,3.665,8.55,8.55,0,0,1-3.4,2.047,13.816,13.816,0,0,1-4.26.627q-5.35,0-8.025-3.467t-2.675-9.344Q63.008,110.554,65.98,107.813Zm53.831,25.26h5.482v-33.02h-23.25l-0.132,4.568q-0.2,5.495-.5,9.334t-0.76,6.388a22.1,22.1,0,0,1-1.023,3.973,6.66,6.66,0,0,1-1.255,2.151,2.894,2.894,0,0,1-1.453.894,7.619,7.619,0,0,1-1.618.165,7.341,7.341,0,0,1-1.651-.2v5.815a9.535,9.535,0,0,0,2.642.326,12.44,12.44,0,0,0,2.378-.231,5.762,5.762,0,0,0,2.312-1.056,8.346,8.346,0,0,0,2.113-2.477,18.482,18.482,0,0,0,1.784-4.557,52.2,52.2,0,0,0,1.321-7.231q0.528-4.324.726-10.467L107,104.94h12.814v28.133Zm20.937,0,0.594-.792,17.966-23.973v24.765h5.482v-33.02h-4.822L141.342,124.62V100.053H135.86v33.02h4.888Zm32.628-3.368a11.6,11.6,0,0,0,4.392,2.774,23.154,23.154,0,0,0,12.88.627,12.8,12.8,0,0,0,4.227-1.915,9.186,9.186,0,0,0,2.874-3.335,10.4,10.4,0,0,0,1.056-4.821,7.038,7.038,0,0,0-1.717-5.085,9.3,9.3,0,0,0-5.02-2.443,10.124,10.124,0,0,0,3.765-2.774,7.46,7.46,0,0,0,1.321-4.755,10.661,10.661,0,0,0-.561-3.566,6.244,6.244,0,0,0-1.883-2.708,8.989,8.989,0,0,0-3.467-1.717,20.251,20.251,0,0,0-5.317-.594h-0.133a24.182,24.182,0,0,0-7,.957,19.869,19.869,0,0,0-5.086,2.213v7.792a14.516,14.516,0,0,1,12.087-6.207q3.171,0.132,4.492,1.32a4.472,4.472,0,0,1,1.321,3.5A4.411,4.411,0,0,1,189.624,113a9.493,9.493,0,0,1-5.152,1.255h-3.963v4.358h4.954a12.861,12.861,0,0,1,5.879,1.057,3.831,3.831,0,0,1,1.981,3.7,4.589,4.589,0,0,1-2.213,4.161,10.884,10.884,0,0,1-5.647,1.453,15.963,15.963,0,0,1-7.629-1.651,10.989,10.989,0,0,1-4.458-4.029v6.406Zm33.685,3.368h5.482v-14.6h5.945l11.889,14.6h6.935l-14.267-17.459,12.088-15.561h-6.275l-10.37,13.8h-5.945v-13.8h-5.482v33.02Zm41.744,0,0.594-.792,17.966-23.973v24.765h5.482v-33.02h-4.822L249.4,124.62V100.053h-5.482v33.02h4.888Zm65.059,0h5.482v-33.02h-5.614l-12.088,17.5-12.285-17.5h-5.944v33.02H288.9V108.11l11.294,16.51h2.444l11.229-16.51v24.963Zm20.937,0,0.6-.792,17.965-23.973v24.765h5.482v-33.02h-4.821L335.4,124.62V100.053h-5.482v33.02H334.8Zm54.425-16.708h44.055v-5.283H389.226v5.283Zm95.97,16.708h5.482v-33.02h-23.25l-0.132,4.568q-0.2,5.495-.5,9.334t-0.76,6.388a22.138,22.138,0,0,1-1.023,3.973,6.673,6.673,0,0,1-1.255,2.151,2.9,2.9,0,0,1-1.454.894,7.61,7.61,0,0,1-1.618.165,7.344,7.344,0,0,1-1.651-.2v5.815a9.536,9.536,0,0,0,2.642.326,12.442,12.442,0,0,0,2.378-.231,5.765,5.765,0,0,0,2.312-1.056,8.346,8.346,0,0,0,2.113-2.477,18.482,18.482,0,0,0,1.784-4.557,52.2,52.2,0,0,0,1.321-7.231q0.526-4.324.726-10.467l0.066-2.51H485.2v28.133Zm23.381-32.624a14.087,14.087,0,0,0-5.152,3.17,14.793,14.793,0,0,0-3.435,5.317,20.478,20.478,0,0,0-1.255,7.495q0,8.718,4.293,13.01t12.154,4.293a20.8,20.8,0,0,0,7.893-1.255,10.946,10.946,0,0,0,4.26-2.774V123.3a10.549,10.549,0,0,1-4.36,4.029,16.229,16.229,0,0,1-7.793,1.651q-4.89,0-7.662-2.543t-3.171-7.892h25.3v-3.566q0-7.395-3.864-11.491t-10.734-4.094A19.215,19.215,0,0,0,508.577,100.449Zm13.011,6.142q2.577,2.444,2.576,7.2v0.066H504.415q0.528-4.821,3.237-7.265a10.636,10.636,0,0,1,7.4-2.443A9.124,9.124,0,0,1,521.588,106.591ZM537.7,133.073h5.482V104.94h16.578v-4.887H537.7v33.02Zm31.307,0h5.483v-14.6h5.944l11.889,14.6h6.935L585,115.614l12.087-15.561h-6.275l-10.37,13.8h-5.944v-13.8h-5.483v33.02Zm37.616-3.665q4.26,4.26,12.12,4.326a19.211,19.211,0,0,0,6.473-1.057,14.056,14.056,0,0,0,5.152-3.17,14.8,14.8,0,0,0,3.435-5.316,20.515,20.515,0,0,0,1.254-7.5q0-8.65-4.293-12.944t-12.087-4.358a19.225,19.225,0,0,0-6.473,1.056,14.1,14.1,0,0,0-5.152,3.17,14.8,14.8,0,0,0-3.434,5.317,20.478,20.478,0,0,0-1.255,7.495Q602.367,125.149,606.627,129.408Zm1.288-12.977q0-6.141,2.774-9.212t7.992-3.071q5.217,0.066,8.025,3.038t2.807,9.311v0.2q0,6.143-2.774,9.213t-7.992,3.071q-5.284,0-8.058-2.972t-2.774-9.378v-0.2Z"/>
</svg>
