<svg xmlns="http://www.w3.org/2000/svg" width="404" height="274" viewBox="0 0 404 274">
  <defs>
    <style>
      .cls-1 {
        fill: #fff;
        fill-rule: evenodd;
      }
    </style>
  </defs>
  <path id="Оставаться_на_связи_с_близкими_легко" data-name="Оставаться  на связи с близкими —  легко" class="cls-1" d="M11.557,37.8a18.715,18.715,0,0,0,4.381,6.78,19.64,19.64,0,0,0,6.9,4.32,25.752,25.752,0,0,0,9.151,1.53,24.708,24.708,0,0,0,9.182-1.62,19.988,19.988,0,0,0,6.931-4.5,19.393,19.393,0,0,0,4.351-6.81,23.963,23.963,0,0,0,1.5-8.61,25.136,25.136,0,0,0-1.53-9,18.69,18.69,0,0,0-4.381-6.81,19.6,19.6,0,0,0-6.931-4.32,25.821,25.821,0,0,0-9.122-1.53,24.64,24.64,0,0,0-9.211,1.62,20.036,20.036,0,0,0-6.9,4.5,19.377,19.377,0,0,0-4.351,6.81,23.949,23.949,0,0,0-1.5,8.61A25.07,25.07,0,0,0,11.557,37.8Zm5.221-15.81a14.559,14.559,0,0,1,8.371-8.73,17.751,17.751,0,0,1,6.781-1.23,17.762,17.762,0,0,1,7.081,1.32,14.489,14.489,0,0,1,8.251,8.88,20.219,20.219,0,0,1,1.05,6.6,19.734,19.734,0,0,1-1.14,6.87,15.352,15.352,0,0,1-3.241,5.31,14.15,14.15,0,0,1-5.1,3.42,18.122,18.122,0,0,1-6.781,1.2,17.742,17.742,0,0,1-7.081-1.32,14.488,14.488,0,0,1-8.251-8.88,20.188,20.188,0,0,1-1.05-6.6A19.929,19.929,0,0,1,16.778,21.985Zm67.36,24.78v-5.82a9.6,9.6,0,0,1-3.571,3.66,11.656,11.656,0,0,1-6.211,1.5q-4.8,0-7.351-2.7t-2.55-8.52v-0.18q0-5.58,2.52-8.37t7.261-2.79a10.247,10.247,0,0,1,5.551,1.56,12.552,12.552,0,0,1,4.051,4.08v-7.08a14.492,14.492,0,0,0-4.021-2.01,17.034,17.034,0,0,0-5.581-.87,17.455,17.455,0,0,0-5.881.96,12.8,12.8,0,0,0-4.681,2.88,13.445,13.445,0,0,0-3.12,4.83,18.608,18.608,0,0,0-1.14,6.81q0,7.92,3.9,11.82t11.042,3.9a15.059,15.059,0,0,0,6.3-1.14,8.888,8.888,0,0,0,3.48-2.52h0Zm15.122,3.06h4.98V24.265H114.2v-4.44H89.238v4.44H99.26v25.56Zm21.722-20.64a12.335,12.335,0,0,1,4.111-4.08,11.45,11.45,0,0,1,6.091-1.56,13.727,13.727,0,0,1,2.97.3,5.722,5.722,0,0,1,2.311,1.05,4.991,4.991,0,0,1,1.5,2.01,8.114,8.114,0,0,1,.54,3.18v2.4h-7.141a32.788,32.788,0,0,0-5.341.39,11.021,11.021,0,0,0-3.96,1.38,6.717,6.717,0,0,0-2.491,2.64,8.746,8.746,0,0,0-.87,4.11q0,4.621,2.7,6.96a10.614,10.614,0,0,0,7.2,2.34,12.4,12.4,0,0,0,6.271-1.53,9.205,9.205,0,0,0,3.87-4.05v5.1h4.741v-19.8a13.7,13.7,0,0,0-.84-5.13,7.984,7.984,0,0,0-2.431-3.33,9.755,9.755,0,0,0-3.87-1.8,22.479,22.479,0,0,0-5.161-.54,19.3,19.3,0,0,0-6.091.87,14.33,14.33,0,0,0-4.111,2.01v7.08Zm4.321,15.12a4.663,4.663,0,0,1-1.5-3.6q0-2.579,1.83-3.42a15.2,15.2,0,0,1,5.911-.84h6.961v3.24a6.333,6.333,0,0,1-.63,1.8,6.754,6.754,0,0,1-1.53,1.95,8.9,8.9,0,0,1-2.611,1.59,10.085,10.085,0,0,1-3.87.66A6.543,6.543,0,0,1,125.3,44.305Zm27.3,5.52h13.142q6.18,0,9.061-2.193t2.881-6.7a9.244,9.244,0,0,0-.511-3.3,5.915,5.915,0,0,0-1.38-2.163,5.572,5.572,0,0,0-2.1-1.262,13.37,13.37,0,0,0-2.671-.6,6.564,6.564,0,0,0,3.811-2.366,7.444,7.444,0,0,0,1.35-4.643,5.994,5.994,0,0,0-2.25-5q-2.25-1.766-7.951-1.767H152.607v30Zm4.98-4.32v-9.12h9a9.042,9.042,0,0,1,4.5.937q1.62,0.937,1.62,3.654a3.839,3.839,0,0,1-1.651,3.413q-1.65,1.118-5.37,1.117h-8.1Zm0-13.32v-7.98l7.8-.06a10.426,10.426,0,0,1,4.32.69q1.44,0.691,1.441,2.91a3.659,3.659,0,0,1-1.681,3.48,9.053,9.053,0,0,1-4.5.96h-7.382Zm28.085-3a12.332,12.332,0,0,1,4.11-4.08,11.45,11.45,0,0,1,6.091-1.56,13.737,13.737,0,0,1,2.971.3,5.717,5.717,0,0,1,2.31,1.05,4.982,4.982,0,0,1,1.5,2.01,8.114,8.114,0,0,1,.54,3.18v2.4h-7.141a32.775,32.775,0,0,0-5.34.39,11.02,11.02,0,0,0-3.961,1.38,6.715,6.715,0,0,0-2.49,2.64,8.734,8.734,0,0,0-.871,4.11q0,4.621,2.7,6.96a10.61,10.61,0,0,0,7.2,2.34,12.4,12.4,0,0,0,6.271-1.53,9.2,9.2,0,0,0,3.871-4.05v5.1h4.74v-19.8a13.7,13.7,0,0,0-.84-5.13,7.991,7.991,0,0,0-2.43-3.33,9.766,9.766,0,0,0-3.871-1.8,22.473,22.473,0,0,0-5.161-.54,19.31,19.31,0,0,0-6.091.87,14.309,14.309,0,0,0-4.11,2.01v7.08Zm4.32,15.12a4.663,4.663,0,0,1-1.5-3.6q0-2.579,1.83-3.42a15.2,15.2,0,0,1,5.911-.84h6.961v3.24a6.272,6.272,0,0,1-.63,1.8,6.754,6.754,0,0,1-1.53,1.95,8.9,8.9,0,0,1-2.61,1.59,10.094,10.094,0,0,1-3.871.66A6.545,6.545,0,0,1,189.992,44.305Zm34.025,5.52H229V24.265h9.961v-4.44H214v4.44h10.022v25.56Zm44.766-15.39a6.679,6.679,0,0,0-2.37-3,9.806,9.806,0,0,0-3.9-1.53,30.4,30.4,0,0,0-5.371-.42h-6.9v-9.66h-4.98v30h11.1a27.4,27.4,0,0,0,6.031-.57,10.115,10.115,0,0,0,4.081-1.83,7.356,7.356,0,0,0,2.34-3.27,14.044,14.044,0,0,0,.75-4.89A12.777,12.777,0,0,0,268.783,34.435Zm-4.68,7.83a4.028,4.028,0,0,1-1.5,1.89,6.552,6.552,0,0,1-2.58.96,22.16,22.16,0,0,1-3.721.27H250.24V33.925H256.6a28.3,28.3,0,0,1,3.751.21,6.383,6.383,0,0,1,2.46.78,3.137,3.137,0,0,1,1.321,1.59,8.649,8.649,0,0,1,.45,2.7A8.341,8.341,0,0,1,264.1,42.265Zm35.105,4.5v-5.82a9.6,9.6,0,0,1-3.571,3.66,11.655,11.655,0,0,1-6.211,1.5q-4.8,0-7.351-2.7t-2.55-8.52v-0.18q0-5.58,2.52-8.37t7.261-2.79a10.25,10.25,0,0,1,5.551,1.56,12.552,12.552,0,0,1,4.051,4.08v-7.08a14.505,14.505,0,0,0-4.021-2.01,17.036,17.036,0,0,0-5.581-.87,17.458,17.458,0,0,0-5.881.96,12.806,12.806,0,0,0-4.681,2.88,13.44,13.44,0,0,0-3.12,4.83,18.616,18.616,0,0,0-1.14,6.81q0,7.92,3.9,11.82t11.042,3.9a15.058,15.058,0,0,0,6.3-1.14,8.892,8.892,0,0,0,3.481-2.52h0Zm25.923,3.06h4.981v-30H318.89a27.884,27.884,0,0,0-6.061.57,10.124,10.124,0,0,0-4.11,1.83,7.148,7.148,0,0,0-2.311,3.27,14.582,14.582,0,0,0-.72,4.89,7.908,7.908,0,0,0,1.681,5.25,9.071,9.071,0,0,0,4.62,2.85l-8.581,11.34h5.761l8.161-10.8h7.8v10.8Zm0-25.56v10.86H317.15q-3.42,0-4.921-1.32a4.522,4.522,0,0,1-1.56-3.42,8.062,8.062,0,0,1,.48-3.03,4.048,4.048,0,0,1,1.5-1.86,6.566,6.566,0,0,1,2.581-.96,22.148,22.148,0,0,1,3.72-.27h6.181ZM32.65,121.825h4.981v-30H32.65v12.54H16.808V91.825H11.827v30h4.981v-13.02H32.65v13.02Zm15.062-20.64a12.335,12.335,0,0,1,4.111-4.08,11.449,11.449,0,0,1,6.091-1.56,13.725,13.725,0,0,1,2.97.3,5.718,5.718,0,0,1,2.31,1.05,4.986,4.986,0,0,1,1.5,2.01,8.112,8.112,0,0,1,.54,3.18v2.4H58.094a32.855,32.855,0,0,0-5.341.39,11.03,11.03,0,0,0-3.961,1.38,6.723,6.723,0,0,0-2.49,2.64,8.744,8.744,0,0,0-.87,4.11q0,4.621,2.7,6.96a10.612,10.612,0,0,0,7.2,2.34,12.4,12.4,0,0,0,6.271-1.53,9.2,9.2,0,0,0,3.871-4.05v5.1h4.741v-19.8a13.7,13.7,0,0,0-.84-5.13,7.986,7.986,0,0,0-2.43-3.33,9.762,9.762,0,0,0-3.871-1.8,22.474,22.474,0,0,0-5.161-.54,19.3,19.3,0,0,0-6.091.87,14.311,14.311,0,0,0-4.111,2.01v7.08Zm4.321,15.12a4.66,4.66,0,0,1-1.5-3.6q0-2.578,1.83-3.42a15.205,15.205,0,0,1,5.911-.84h6.961v3.24a6.3,6.3,0,0,1-.63,1.8,6.75,6.75,0,0,1-1.53,1.95,8.875,8.875,0,0,1-2.61,1.59,10.083,10.083,0,0,1-3.871.66A6.541,6.541,0,0,1,52.033,116.305Zm65.349,2.46v-5.82a9.592,9.592,0,0,1-3.57,3.66,11.653,11.653,0,0,1-6.211,1.5q-4.8,0-7.352-2.7t-2.55-8.52v-0.18q0-5.58,2.52-8.37t7.262-2.79a10.243,10.243,0,0,1,5.55,1.56,12.554,12.554,0,0,1,4.051,4.08v-7.08a14.472,14.472,0,0,0-4.021-2.01,17.027,17.027,0,0,0-5.58-.87,17.451,17.451,0,0,0-5.881.96,12.792,12.792,0,0,0-4.681,2.88A13.443,13.443,0,0,0,93.8,99.9a18.607,18.607,0,0,0-1.14,6.81q0,7.92,3.9,11.82t11.042,3.9a15.05,15.05,0,0,0,6.3-1.14,8.887,8.887,0,0,0,3.48-2.52h0Zm7.5,3.06h13.142q6.18,0,9.061-2.192t2.881-6.7a9.272,9.272,0,0,0-.51-3.3,5.923,5.923,0,0,0-1.381-2.162,5.556,5.556,0,0,0-2.1-1.262,13.319,13.319,0,0,0-2.67-.6,6.563,6.563,0,0,0,3.81-2.367,7.442,7.442,0,0,0,1.351-4.643,5.994,5.994,0,0,0-2.251-5q-2.25-1.766-7.951-1.767H124.883v30Zm4.981-4.32v-9.12h9a9.043,9.043,0,0,1,4.5.937q1.62,0.936,1.62,3.653a3.84,3.84,0,0,1-1.65,3.413q-1.651,1.117-5.371,1.117h-8.1Zm0-13.32v-7.98l7.8-.06a10.433,10.433,0,0,1,4.321.69q1.44,0.69,1.44,2.91a3.659,3.659,0,0,1-1.681,3.48,9.046,9.046,0,0,1-4.5.96h-7.381Zm46.027,17.64h4.981v-30H169.65a27.871,27.871,0,0,0-6.061.57,10.133,10.133,0,0,0-4.111,1.83,7.153,7.153,0,0,0-2.31,3.27,14.579,14.579,0,0,0-.72,4.89,7.906,7.906,0,0,0,1.68,5.25,9.068,9.068,0,0,0,4.621,2.85l-8.582,11.34h5.761l8.162-10.8h7.8v10.8Zm0-25.56v10.86H167.91q-3.422,0-4.921-1.32a4.517,4.517,0,0,1-1.56-3.42,8.06,8.06,0,0,1,.48-3.03,4.035,4.035,0,0,1,1.5-1.86,6.56,6.56,0,0,1,2.58-.96,22.16,22.16,0,0,1,3.721-.27h6.181Zm12.781,22.5a10.518,10.518,0,0,0,3.991,2.52,21.043,21.043,0,0,0,11.7.57,11.631,11.631,0,0,0,3.841-1.74,8.33,8.33,0,0,0,2.61-3.03,9.427,9.427,0,0,0,.961-4.38,6.4,6.4,0,0,0-1.561-4.62,8.456,8.456,0,0,0-4.56-2.22,9.184,9.184,0,0,0,3.42-2.52,6.772,6.772,0,0,0,1.2-4.32,9.662,9.662,0,0,0-.51-3.24,5.67,5.67,0,0,0-1.71-2.46,8.177,8.177,0,0,0-3.15-1.56,18.4,18.4,0,0,0-4.831-.54h-0.12a21.953,21.953,0,0,0-6.361.87,18.043,18.043,0,0,0-4.621,2.01v7.08a13.188,13.188,0,0,1,10.982-5.64,6.508,6.508,0,0,1,4.08,1.2,4.06,4.06,0,0,1,1.2,3.18,4.005,4.005,0,0,1-1.8,3.66,8.618,8.618,0,0,1-4.68,1.14h-3.6v3.96h4.5a11.7,11.7,0,0,1,5.341.96,3.482,3.482,0,0,1,1.8,3.36,4.169,4.169,0,0,1-2.01,3.78,9.88,9.88,0,0,1-5.131,1.32,14.49,14.49,0,0,1-6.931-1.5,9.972,9.972,0,0,1-4.051-3.66v5.82Zm35.045,3.06,0.54-.72,16.323-21.78v22.5h4.981v-30H241.18l-16.923,22.32V91.825h-4.98v30h4.44ZM34.27,190.765v-5.82a9.594,9.594,0,0,1-3.571,3.66,11.65,11.65,0,0,1-6.211,1.5q-4.8,0-7.351-2.7t-2.55-8.52v-0.18q0-5.58,2.52-8.37t7.261-2.79a10.253,10.253,0,0,1,5.551,1.56,12.555,12.555,0,0,1,4.051,4.08v-7.08a14.517,14.517,0,0,0-4.021-2.01,17.042,17.042,0,0,0-5.581-.87,17.462,17.462,0,0,0-5.881.96,12.813,12.813,0,0,0-4.681,2.88,13.453,13.453,0,0,0-3.12,4.83,18.611,18.611,0,0,0-1.14,6.81q0,7.92,3.9,11.82t11.042,3.9a15.048,15.048,0,0,0,6.3-1.14,8.88,8.88,0,0,0,3.481-2.52h0Zm48.307-43.2a9.531,9.531,0,0,1-2.58.81q-1.681.332-3.571,0.54t-3.691.36q-1.8.151-2.94,0.33a17.618,17.618,0,0,0-6.631,2.16,12.345,12.345,0,0,0-4.441,4.62,23.07,23.07,0,0,0-2.49,7.47,62.864,62.864,0,0,0-.78,10.65q0,10.381,3.721,15.15t11.4,4.77q7.141,0,10.952-3.99t3.811-12.03a20.7,20.7,0,0,0-.99-6.87,11.465,11.465,0,0,0-2.76-4.5,10.337,10.337,0,0,0-4.231-2.46,18.5,18.5,0,0,0-5.4-.75,14.877,14.877,0,0,0-6.961,1.62,13.747,13.747,0,0,0-5.221,4.86,45.387,45.387,0,0,1,.96-6.45,13.162,13.162,0,0,1,2.16-4.89,10.418,10.418,0,0,1,4.051-3.24,19.037,19.037,0,0,1,6.631-1.5q3.72-.3,5.911-0.54a9.243,9.243,0,0,0,3.091-.72v-5.4Zm-19.263,23.31a10.383,10.383,0,0,1,7.321-2.49,9.527,9.527,0,0,1,6.9,2.43q2.52,2.43,2.52,8.19a14.844,14.844,0,0,1-.72,4.92,8.531,8.531,0,0,1-2.04,3.33,7.752,7.752,0,0,1-3.09,1.86,12.543,12.543,0,0,1-3.871.57q-4.861,0-7.291-3.15t-2.43-8.49Q60.614,173.365,63.314,170.875Zm48.908,22.95h4.98v-30H96.079l-0.12,4.151q-0.18,4.992-.45,8.479t-0.69,5.8a20.1,20.1,0,0,1-.93,3.61,6.061,6.061,0,0,1-1.14,1.955,2.625,2.625,0,0,1-1.32.811,6.854,6.854,0,0,1-1.47.15,6.667,6.667,0,0,1-1.5-.18v5.284a8.669,8.669,0,0,0,2.4.3,11.3,11.3,0,0,0,2.16-.21,5.215,5.215,0,0,0,2.1-.96,7.567,7.567,0,0,0,1.92-2.25,16.774,16.774,0,0,0,1.62-4.14,47.355,47.355,0,0,0,1.2-6.57q0.479-3.928.66-9.51l0.06-2.28h11.642v25.56Zm19.022,0,0.54-.72,16.322-21.78v22.5h4.981v-30h-4.381l-16.922,22.32v-22.32H126.8v30h4.441Zm29.644-3.06a10.521,10.521,0,0,0,3.99,2.52,21.047,21.047,0,0,0,11.7.57,11.631,11.631,0,0,0,3.841-1.74,8.33,8.33,0,0,0,2.61-3.03,9.427,9.427,0,0,0,.96-4.38,6.4,6.4,0,0,0-1.56-4.62,8.46,8.46,0,0,0-4.56-2.22,9.184,9.184,0,0,0,3.42-2.52,6.773,6.773,0,0,0,1.2-4.32,9.662,9.662,0,0,0-.51-3.24,5.672,5.672,0,0,0-1.71-2.46,8.185,8.185,0,0,0-3.151-1.56,18.389,18.389,0,0,0-4.83-.54h-0.12a21.966,21.966,0,0,0-6.361.87,18.066,18.066,0,0,0-4.621,2.01v7.08a13.187,13.187,0,0,1,10.982-5.64,6.511,6.511,0,0,1,4.08,1.2,4.061,4.061,0,0,1,1.2,3.18,4.007,4.007,0,0,1-1.8,3.66,8.619,8.619,0,0,1-4.681,1.14h-3.6v3.96h4.5a11.688,11.688,0,0,1,5.34.96,3.481,3.481,0,0,1,1.8,3.36,4.168,4.168,0,0,1-2.011,3.78,9.874,9.874,0,0,1-5.13,1.32,14.5,14.5,0,0,1-6.932-1.5,9.975,9.975,0,0,1-4.05-3.66v5.82Zm30.6,3.06h4.981v-13.26h5.4l10.8,13.26h6.3l-12.962-15.862L217,163.825h-5.7l-9.421,12.54h-5.4v-12.54h-4.981v30Zm37.926,0,0.54-.72,16.323-21.78v22.5h4.981v-30h-4.381l-16.923,22.32v-22.32h-4.98v30h4.44Zm59.109,0h4.981v-30h-5.1l-10.982,15.9-11.162-15.9h-5.4v30h4.98v-22.68l10.262,15h2.22l10.2-15v22.68Zm19.023,0,0.54-.72,16.322-21.78v22.5h4.981v-30h-4.381l-16.922,22.32v-22.32h-4.981v30h4.441ZM357,178.645h40.027v-4.8H357v4.8ZM31.39,265.825h4.981v-30H15.247l-0.12,4.151q-0.18,4.992-.45,8.479t-0.69,5.8a20.1,20.1,0,0,1-.93,3.61,6.061,6.061,0,0,1-1.14,1.955,2.625,2.625,0,0,1-1.32.811,6.854,6.854,0,0,1-1.47.15,6.666,6.666,0,0,1-1.5-.18v5.284a8.669,8.669,0,0,0,2.4.3,11.3,11.3,0,0,0,2.16-.21,5.215,5.215,0,0,0,2.1-.96,7.567,7.567,0,0,0,1.92-2.25,16.774,16.774,0,0,0,1.62-4.14,47.355,47.355,0,0,0,1.2-6.57q0.48-3.928.66-9.51l0.06-2.28H31.39v25.56Zm21.242-29.64a12.813,12.813,0,0,0-4.681,2.88,13.451,13.451,0,0,0-3.12,4.83,18.609,18.609,0,0,0-1.14,6.81q0,7.92,3.9,11.82t11.042,3.9a18.883,18.883,0,0,0,7.171-1.14,9.931,9.931,0,0,0,3.871-2.52v-5.82a9.576,9.576,0,0,1-3.961,3.66,14.741,14.741,0,0,1-7.081,1.5,9.91,9.91,0,0,1-6.961-2.31q-2.52-2.309-2.88-7.17H71.775v-3.24q0-6.718-3.511-10.44t-9.751-3.72A17.462,17.462,0,0,0,52.632,236.185Zm11.822,5.58q2.34,2.222,2.34,6.54v0.06H48.852a9.988,9.988,0,0,1,2.94-6.6,9.666,9.666,0,0,1,6.721-2.22A8.29,8.29,0,0,1,64.454,241.765ZM79.1,265.825h4.981v-25.56H99.139v-4.44H79.1v30Zm28.444,0h4.981v-13.26h5.4l10.8,13.26h6.3l-12.962-15.862,10.982-14.138h-5.7l-9.421,12.54h-5.4v-12.54H107.54v30Zm34.175-3.33q3.871,3.87,11.012,3.93a17.44,17.44,0,0,0,5.881-.96,12.761,12.761,0,0,0,4.681-2.88,13.426,13.426,0,0,0,3.12-4.83,18.6,18.6,0,0,0,1.14-6.81q0-7.858-3.9-11.76t-10.982-3.96a17.461,17.461,0,0,0-5.881.96,12.822,12.822,0,0,0-4.681,2.88,13.448,13.448,0,0,0-3.12,4.83,18.6,18.6,0,0,0-1.14,6.81Q137.845,258.625,141.715,262.5Zm1.171-11.79q0-5.58,2.52-8.37t7.261-2.79q4.74,0.062,7.291,2.76t2.551,8.46v0.18q0,5.58-2.521,8.37t-7.261,2.79q-4.8,0-7.321-2.7t-2.52-8.52v-0.18Z"/>
</svg>
