<svg xmlns="http://www.w3.org/2000/svg" width="483" height="162" viewBox="0 0 483 162">
  <defs>
    <style>
      .cls-1 {
        fill: #fff;
        fill-rule: evenodd;
      }
    </style>
  </defs>
  <path id="Оплачивайте_мобильную_связь_родственникам_в_СНГ" data-name="Оплачивайте  мобильную связь  родственникам в СНГ" class="cls-1" d="M29.914,39.665a16.233,16.233,0,0,0,5.423-3.294,14.584,14.584,0,0,0,3.518-5.086,16.876,16.876,0,0,0,1.255-6.61,17.662,17.662,0,0,0-1.277-6.923,14.372,14.372,0,0,0-3.563-5.109,15.279,15.279,0,0,0-5.445-3.159A21.371,21.371,0,0,0,22.9,8.409a20.149,20.149,0,0,0-7.014,1.165,15.782,15.782,0,0,0-5.423,3.294,14.8,14.8,0,0,0-3.518,5.108,16.866,16.866,0,0,0-1.255,6.61,17.661,17.661,0,0,0,1.277,6.923,14.371,14.371,0,0,0,3.563,5.108,15.275,15.275,0,0,0,5.445,3.159,21.516,21.516,0,0,0,6.969,1.075A19.68,19.68,0,0,0,29.914,39.665ZM13.959,20.777a8.392,8.392,0,0,1,1.882-3,8.5,8.5,0,0,1,3-1.949,10.915,10.915,0,0,1,4.011-.695,10.72,10.72,0,0,1,4.213.762,8.688,8.688,0,0,1,3,2.061,8.534,8.534,0,0,1,1.815,3.025,10.957,10.957,0,0,1,.605,3.652,11.129,11.129,0,0,1-.65,3.9,8.048,8.048,0,0,1-1.9,2.98,8.889,8.889,0,0,1-3.025,1.927,10.776,10.776,0,0,1-3.966.694,10.7,10.7,0,0,1-4.213-.762,8.658,8.658,0,0,1-3-2.061,8.557,8.557,0,0,1-1.815-3A11.608,11.608,0,0,1,13.959,20.777ZM59.2,40.315h6.723V17.909H44.368V40.315H51.09V23.824H59.2v16.49Zm26.711,0h6.767V17.909H74.126l-0.179,6.677a41.279,41.279,0,0,1-.381,5.019,11.033,11.033,0,0,1-.717,2.756,2.239,2.239,0,0,1-.964,1.165,2.658,2.658,0,0,1-1.12.246,3.654,3.654,0,0,1-.56-0.045,2.477,2.477,0,0,1-.605-0.179v6.767a9.991,9.991,0,0,0,1.076.179,11.957,11.957,0,0,0,1.479.09,8.594,8.594,0,0,0,2.689-.426,5.006,5.006,0,0,0,2.353-1.77,11.337,11.337,0,0,0,1.77-3.876,31.882,31.882,0,0,0,.941-6.744l0.224-3.943h5.782v16.49Zm13.042-13.13a9.936,9.936,0,0,1,1.3-1.528,7.419,7.419,0,0,1,1.681-1.2,8.966,8.966,0,0,1,2.285-.8,14.8,14.8,0,0,1,3.115-.288,4.034,4.034,0,0,1,2.869.774,3.693,3.693,0,0,1,.762,2.633v0.177h-4.841a19.075,19.075,0,0,0-3.54.314,8.2,8.2,0,0,0-2.869,1.076,5.393,5.393,0,0,0-1.9,2.061,6.993,6.993,0,0,0-.695,3.316,7.053,7.053,0,0,0,1.793,5.041,6.919,6.919,0,0,0,5.288,1.9,7.974,7.974,0,0,0,4.482-1.21,6.845,6.845,0,0,0,2.644-3.182v4.033h6.364V25.527q0-4.167-2.4-6.117t-7.956-1.949a20.983,20.983,0,0,0-5.221.538,9.055,9.055,0,0,0-3.16,1.389v7.8Zm4.93,5.646a1.575,1.575,0,0,1,.874-1.524,5.575,5.575,0,0,1,2.488-.448h3.72v1.3a2.645,2.645,0,0,1-1.345,1.882,5.849,5.849,0,0,1-3.092.717q-2.646,0-2.645-1.927h0ZM136.6,40.315h6.723V17.909H136.6V27.14a7.91,7.91,0,0,1-4.168,1.031,3.556,3.556,0,0,1-2.286-.713,2.849,2.849,0,0,1-.9-2.365V17.909h-6.723v8.38q0,4.033,2.241,5.915a9.109,9.109,0,0,0,6.051,1.882,14.23,14.23,0,0,0,3.092-.338,9.365,9.365,0,0,0,2.689-1.014v7.581Zm12.325,0h6.722l8.874-13.623V40.315h6.768V17.909h-6.723L155.694,31.4V17.909h-6.767V40.315Zm27.966,0h12.414q4.3,0,6.409-1.746a5.986,5.986,0,0,0,2.107-4.878,5,5,0,0,0-1.412-3.961,6.5,6.5,0,0,0-3.563-1.5,4.948,4.948,0,0,0,2.846-1.75,5.117,5.117,0,0,0,1.008-3.231,4.758,4.758,0,0,0-1.725-3.994q-1.727-1.347-5.535-1.347H176.893V40.315Zm6.722-5.557v-3.63h4.751a3.656,3.656,0,0,1,2.129.459,1.574,1.574,0,0,1,.6,1.334,1.61,1.61,0,0,1-.6,1.4,3.594,3.594,0,0,1-2.039.437h-4.841Zm0-7.976V23.51l3.855-.044q2.463,0,2.465,1.547a1.517,1.517,0,0,1-.6,1.371,2.946,2.946,0,0,1-1.636.4h-4.079Zm18.958,0.4a9.949,9.949,0,0,1,1.3-1.528,7.419,7.419,0,0,1,1.681-1.2,8.966,8.966,0,0,1,2.285-.8,14.8,14.8,0,0,1,3.115-.288,4.034,4.034,0,0,1,2.869.774,3.693,3.693,0,0,1,.761,2.633v0.177h-4.84a19.093,19.093,0,0,0-3.541.314,8.2,8.2,0,0,0-2.868,1.076,5.393,5.393,0,0,0-1.905,2.061,7,7,0,0,0-.694,3.316,7.055,7.055,0,0,0,1.792,5.041,6.919,6.919,0,0,0,5.289,1.9,7.974,7.974,0,0,0,4.482-1.21,6.845,6.845,0,0,0,2.644-3.182v4.033h6.364V25.527q0-4.167-2.4-6.117t-7.955-1.949a20.983,20.983,0,0,0-5.221.538,9.061,9.061,0,0,0-3.16,1.389v7.8Zm4.93,5.646a1.575,1.575,0,0,1,.874-1.524,5.575,5.575,0,0,1,2.488-.448h3.719v1.3a2.641,2.641,0,0,1-1.344,1.882,5.85,5.85,0,0,1-3.093.717q-2.644,0-2.644-1.927h0Zm19.137,7.483h6.723l8.874-13.623V40.315H249V17.909h-6.722L233.408,31.4V17.909H226.64V40.315ZM240.4,6.751a2.949,2.949,0,0,1-.582,1.949,2.208,2.208,0,0,1-1.793.695,2.536,2.536,0,0,1-2.039-.717,2.886,2.886,0,0,1-.605-1.927h-6.14a8.231,8.231,0,0,0,.694,3.562,5.987,5.987,0,0,0,1.905,2.33,7.834,7.834,0,0,0,2.824,1.255,14.965,14.965,0,0,0,3.451.381,12.617,12.617,0,0,0,3.115-.381,7.439,7.439,0,0,0,2.666-1.255,6.368,6.368,0,0,0,1.883-2.33,8.023,8.023,0,0,0,.717-3.562h-6.1Zm19.316,33.564h6.723V23.824h7.126V17.909H252.9v5.915h6.812v16.49Zm37.109-8.658a7.079,7.079,0,0,1-2.913,2.3,11.538,11.538,0,0,1-4.93.931,7.551,7.551,0,0,1-4.325-1.041,4.458,4.458,0,0,1-1.86-2.992h16.045V28.978q0-5.736-2.868-8.671T287.9,17.372a13.427,13.427,0,0,0-4.885.851,10.776,10.776,0,0,0-3.72,2.353,10.2,10.2,0,0,0-2.353,3.652,13.231,13.231,0,0,0-.829,4.795,13.659,13.659,0,0,0,.874,5.041,10,10,0,0,0,2.488,3.719,10.476,10.476,0,0,0,3.921,2.263,16.627,16.627,0,0,0,5.221.762,14.437,14.437,0,0,0,2.689-.246,16.013,16.013,0,0,0,2.421-.65,11.757,11.757,0,0,0,1.927-.875,4.837,4.837,0,0,0,1.165-.875v-6.5Zm-6.073-7.43a3.933,3.933,0,0,1,1.233,2.285h-9.053a4.431,4.431,0,0,1,1.68-2.4,5.251,5.251,0,0,1,3.07-.829A4.366,4.366,0,0,1,290.751,24.228ZM28.5,94.088h3.72V71.683H28.413l-8.2,11.875L11.875,71.683H7.841V94.088h3.72V77.15l7.664,11.2h1.658L28.5,77.15V94.088ZM40.581,91.6q2.891,2.89,8.224,2.935a13.038,13.038,0,0,0,4.392-.717,9.537,9.537,0,0,0,3.5-2.151,10.038,10.038,0,0,0,2.331-3.607,13.907,13.907,0,0,0,.851-5.086q0-5.87-2.913-8.783t-8.2-2.958a13.035,13.035,0,0,0-4.392.717,9.556,9.556,0,0,0-3.5,2.151,10.041,10.041,0,0,0-2.331,3.607A13.9,13.9,0,0,0,37.69,82.8Q37.69,88.711,40.581,91.6ZM41.455,82.8q0-4.167,1.882-6.251a6.933,6.933,0,0,1,5.423-2.084,7.268,7.268,0,0,1,5.445,2.061q1.9,2.016,1.9,6.318v0.134q0,4.167-1.882,6.251A6.934,6.934,0,0,1,48.8,91.31a7.116,7.116,0,0,1-5.468-2.016q-1.882-2.017-1.882-6.363V82.8ZM84.166,59.539a7.137,7.137,0,0,1-1.927.605q-1.255.247-2.667,0.4t-2.756.269q-1.345.112-2.2,0.246a13.158,13.158,0,0,0-4.952,1.613,9.216,9.216,0,0,0-3.317,3.45,17.225,17.225,0,0,0-1.86,5.579,46.94,46.94,0,0,0-.583,7.954q0,7.753,2.779,11.315T75.2,94.536q5.333,0,8.179-2.98t2.846-8.985a15.466,15.466,0,0,0-.739-5.131,8.565,8.565,0,0,0-2.062-3.361,7.716,7.716,0,0,0-3.16-1.837,13.8,13.8,0,0,0-4.034-.56,11.111,11.111,0,0,0-5.2,1.21,10.268,10.268,0,0,0-3.9,3.63,33.9,33.9,0,0,1,.717-4.817,9.827,9.827,0,0,1,1.614-3.652,7.777,7.777,0,0,1,3.025-2.42,14.2,14.2,0,0,1,4.952-1.12q2.778-.224,4.415-0.4a6.915,6.915,0,0,0,2.308-.538V59.539ZM69.78,76.948a7.753,7.753,0,0,1,5.468-1.86A7.115,7.115,0,0,1,80.4,76.9q1.882,1.815,1.882,6.117a11.084,11.084,0,0,1-.538,3.674,6.378,6.378,0,0,1-1.524,2.487,5.8,5.8,0,0,1-2.308,1.389A9.375,9.375,0,0,1,75.023,91a6.449,6.449,0,0,1-5.445-2.353A10.12,10.12,0,0,1,67.763,82.3,6.922,6.922,0,0,1,69.78,76.948Zm25.233,17.14,0.4-.538,12.191-16.266v16.8h3.72V71.683h-3.272L95.415,88.352V71.683H91.7V94.088h3.317Zm38.1,0h3.72V71.683H121.051l-0.09,3.1q-0.133,3.728-.336,6.333T120.11,85.45a15,15,0,0,1-.695,2.7,4.527,4.527,0,0,1-.851,1.46,1.962,1.962,0,0,1-.986.606,5.162,5.162,0,0,1-1.1.112,4.98,4.98,0,0,1-1.12-.134v3.946a6.481,6.481,0,0,0,1.793.221,8.452,8.452,0,0,0,1.613-.157,3.908,3.908,0,0,0,1.569-.717,5.657,5.657,0,0,0,1.434-1.68,12.524,12.524,0,0,0,1.21-3.092,35.259,35.259,0,0,0,.9-4.907q0.359-2.934.493-7.1l0.045-1.7h8.695v19.09Zm28.459-11.494a4.987,4.987,0,0,0-1.771-2.24,7.316,7.316,0,0,0-2.913-1.143,22.689,22.689,0,0,0-4.011-.314h-5.154V71.683H144V94.088h8.291a20.475,20.475,0,0,0,4.5-.426A7.551,7.551,0,0,0,159.84,92.3a5.5,5.5,0,0,0,1.748-2.442,10.5,10.5,0,0,0,.56-3.652A9.551,9.551,0,0,0,161.566,82.594Zm-3.5,5.848a3.013,3.013,0,0,1-1.12,1.411,4.9,4.9,0,0,1-1.928.717,16.548,16.548,0,0,1-2.778.2h-4.527V82.213h4.751a21.107,21.107,0,0,1,2.8.157,4.761,4.761,0,0,1,1.837.582,2.337,2.337,0,0,1,.986,1.188,6.451,6.451,0,0,1,.337,2.016A6.213,6.213,0,0,1,158.07,88.442Zm25.008,5.646h3.72V71.683h-3.72v9.365H171.246V71.683h-3.72V94.088h3.72V84.364h11.832v9.724Zm17.613,0.09a13.573,13.573,0,0,1-.941,2.509,5.574,5.574,0,0,1-1.008,1.434,2.649,2.649,0,0,1-1.031.65,3.61,3.61,0,0,1-1.053.157,4.184,4.184,0,0,1-1.77-.4,4.7,4.7,0,0,1-1.367-.9v3.854a3.608,3.608,0,0,0,1.5.717,8.064,8.064,0,0,0,2.084.269,6.3,6.3,0,0,0,1.86-.269,4.641,4.641,0,0,0,1.658-.941,7.352,7.352,0,0,0,1.479-1.837,18.652,18.652,0,0,0,1.367-2.958l9.188-24.78h-3.989l-6.05,17.476-7.261-17.476h-4.3Zm15.776-.09h3.72V84.364h4.572q0.359,5.176,3.137,7.719a10.788,10.788,0,0,0,7.574,2.543,12.9,12.9,0,0,0,4.348-.717,9.4,9.4,0,0,0,3.495-2.173,10.309,10.309,0,0,0,2.331-3.607,13.732,13.732,0,0,0,.852-5.064q0-5.915-2.914-8.828t-8.246-2.913a11.932,11.932,0,0,0-3.922.627,9.605,9.605,0,0,0-3.2,1.837,9.3,9.3,0,0,0-2.264,3.025,13.039,13.039,0,0,0-1.142,4.235h-4.617V71.683h-3.72V94.088Zm11.877-11.2q0-4.167,1.815-6.251a6.553,6.553,0,0,1,5.222-2.084,7.266,7.266,0,0,1,5.445,2.061q1.905,2.017,1.905,6.318v0.134q0,4.167-1.883,6.251a6.933,6.933,0,0,1-5.423,2.084,6.72,6.72,0,0,1-5.266-2.016q-1.815-2.016-1.815-6.363V82.885ZM280.377,91.8V87.456a7.167,7.167,0,0,1-2.666,2.733,8.707,8.707,0,0,1-4.639,1.12,7.189,7.189,0,0,1-5.49-2.016q-1.9-2.017-1.9-6.363V82.8q0-4.167,1.882-6.251a6.934,6.934,0,0,1,5.423-2.084,7.653,7.653,0,0,1,4.146,1.165,9.366,9.366,0,0,1,3.025,3.047V73.385a10.818,10.818,0,0,0-3-1.5,12.716,12.716,0,0,0-4.168-.65,13.036,13.036,0,0,0-4.392.717,9.561,9.561,0,0,0-3.5,2.151,10.036,10.036,0,0,0-2.33,3.607,13.9,13.9,0,0,0-.852,5.086q0,5.915,2.914,8.828t8.246,2.913a11.247,11.247,0,0,0,4.706-.851,6.631,6.631,0,0,0,2.6-1.882h0Zm5.6,2.285h9.815q4.617,0,6.768-1.638a5.887,5.887,0,0,0,2.151-5,6.9,6.9,0,0,0-.381-2.467,4.432,4.432,0,0,0-1.03-1.615,4.167,4.167,0,0,0-1.569-.942,9.98,9.98,0,0,0-2-.449,4.9,4.9,0,0,0,2.846-1.767,5.554,5.554,0,0,0,1.009-3.468A4.475,4.475,0,0,0,301.912,73q-1.68-1.319-5.938-1.32h-10V94.088Zm3.72-3.226V84.05h6.723a6.747,6.747,0,0,1,3.361.7,3.459,3.459,0,0,1-.022,5.277,7.363,7.363,0,0,1-4.011.835H289.7Zm0-9.948v-5.96l5.827-.045a7.785,7.785,0,0,1,3.226.515,2.161,2.161,0,0,1,1.076,2.173,2.734,2.734,0,0,1-1.255,2.6,6.764,6.764,0,0,1-3.361.717H289.7Zm34.376,13.174h3.72V71.683h-8.381a20.821,20.821,0,0,0-4.527.426,7.561,7.561,0,0,0-3.07,1.367,5.345,5.345,0,0,0-1.726,2.442,10.9,10.9,0,0,0-.537,3.652,5.907,5.907,0,0,0,1.255,3.921,6.773,6.773,0,0,0,3.451,2.129l-6.409,8.469h4.3l6.095-8.066h5.827v8.066Zm0-19.09v8.111h-5.961a5.517,5.517,0,0,1-3.675-.986,3.376,3.376,0,0,1-1.165-2.554,6.037,6.037,0,0,1,.358-2.263,3.017,3.017,0,0,1,1.121-1.389,4.891,4.891,0,0,1,1.927-.717,16.538,16.538,0,0,1,2.778-.2h4.617Zm9.545,16.8a7.867,7.867,0,0,0,2.981,1.882,15.717,15.717,0,0,0,8.739.426,8.69,8.69,0,0,0,2.869-1.3,6.23,6.23,0,0,0,1.949-2.263,7.041,7.041,0,0,0,.717-3.271,4.775,4.775,0,0,0-1.165-3.45,6.313,6.313,0,0,0-3.406-1.658,6.876,6.876,0,0,0,2.555-1.882,5.062,5.062,0,0,0,.9-3.226,7.24,7.24,0,0,0-.381-2.42A4.239,4.239,0,0,0,348.1,72.8a6.11,6.11,0,0,0-2.353-1.165,13.744,13.744,0,0,0-3.608-.4h-0.09a16.405,16.405,0,0,0-4.751.65,13.486,13.486,0,0,0-3.451,1.5v5.288a9.85,9.85,0,0,1,8.2-4.212,4.865,4.865,0,0,1,3.048.9,3.034,3.034,0,0,1,.9,2.375,2.993,2.993,0,0,1-1.344,2.734,6.446,6.446,0,0,1-3.5.851h-2.689v2.957h3.361a8.728,8.728,0,0,1,3.989.717,2.6,2.6,0,0,1,1.344,2.509,3.112,3.112,0,0,1-1.5,2.823,7.379,7.379,0,0,1-3.832.986,10.826,10.826,0,0,1-5.176-1.12,7.455,7.455,0,0,1-3.026-2.733V91.8Zm40.426-9.209a4.992,4.992,0,0,0-1.77-2.24,7.322,7.322,0,0,0-2.913-1.143,22.708,22.708,0,0,0-4.012-.314H360.2V71.683h-3.72V94.088h8.292a20.465,20.465,0,0,0,4.5-.426,7.555,7.555,0,0,0,3.048-1.367,5.5,5.5,0,0,0,1.748-2.442,10.5,10.5,0,0,0,.56-3.652A9.55,9.55,0,0,0,374.046,82.594Zm-3.5,5.848a3,3,0,0,1-1.12,1.411,4.9,4.9,0,0,1-1.927.717,16.56,16.56,0,0,1-2.779.2H360.2V82.213h4.751a21.107,21.107,0,0,1,2.8.157,4.772,4.772,0,0,1,1.838.582,2.342,2.342,0,0,1,.986,1.188,6.425,6.425,0,0,1,.336,2.016A6.213,6.213,0,0,1,370.55,88.442ZM7.841,155.927h3.72v-11.5a8.288,8.288,0,0,0,2.891,2.745,9.048,9.048,0,0,0,4.773,1.182,12.757,12.757,0,0,0,4.3-.672,7.8,7.8,0,0,0,3.2-2.128,9.652,9.652,0,0,0,2.017-3.765,19.719,19.719,0,0,0,.695-5.623q0-5.871-2.644-8.514a9.63,9.63,0,0,0-7.126-2.644,9.441,9.441,0,0,0-5.423,1.383,7.843,7.843,0,0,0-2.868,3.346v-4.281H7.841v30.471Zm3.72-20.523a7.577,7.577,0,0,1,1.86-5.221,6.942,6.942,0,0,1,5.266-1.859,9.611,9.611,0,0,1,2.868.405,5.193,5.193,0,0,1,2.218,1.352,6.232,6.232,0,0,1,1.412,2.5,12.738,12.738,0,0,1,.493,3.807q0,4.686-1.681,6.668t-5.356,1.982a6.94,6.94,0,0,1-5.132-1.949,7.36,7.36,0,0,1-1.95-5.445V135.4Zm24.448,9.97q2.891,2.891,8.224,2.935a13.026,13.026,0,0,0,4.392-.717,9.534,9.534,0,0,0,3.5-2.15,10.037,10.037,0,0,0,2.331-3.608,13.9,13.9,0,0,0,.852-5.086q0-5.869-2.913-8.783t-8.2-2.957a13.023,13.023,0,0,0-4.392.717,9.549,9.549,0,0,0-3.5,2.151,10.032,10.032,0,0,0-2.331,3.607,13.892,13.892,0,0,0-.852,5.086Q33.118,142.484,36.009,145.374Zm0.874-8.805q0-4.167,1.882-6.251a6.933,6.933,0,0,1,5.423-2.084,7.269,7.269,0,0,1,5.445,2.061q1.9,2.018,1.9,6.319v0.134q0,4.167-1.882,6.251a6.934,6.934,0,0,1-5.423,2.084,7.117,7.117,0,0,1-5.468-2.016q-1.882-2.017-1.882-6.364v-0.134Zm20.527,7.752v9.366H60.95v-5.826H78.474v5.826h3.541v-9.366h-3.63V125.456H62.609v2.554q0,3.183-.179,5.646t-0.515,4.414a31.171,31.171,0,0,1-.784,3.473,20.04,20.04,0,0,1-1.031,2.778H57.41Zm8.74-15.549h8.515v15.549H63.774a26.224,26.224,0,0,0,1.725-6.139,56.958,56.958,0,0,0,.605-7.573Zm37.289,16.8v-4.347a7.172,7.172,0,0,1-2.667,2.734,8.706,8.706,0,0,1-4.639,1.12,7.191,7.191,0,0,1-5.49-2.016q-1.905-2.017-1.9-6.364v-0.134q0-4.167,1.882-6.251a6.933,6.933,0,0,1,5.423-2.084,7.654,7.654,0,0,1,4.145,1.165,9.383,9.383,0,0,1,3.026,3.047v-5.287a10.823,10.823,0,0,0-3-1.5,12.741,12.741,0,0,0-4.168-.649,13.023,13.023,0,0,0-4.392.717,9.549,9.549,0,0,0-3.5,2.151,10.032,10.032,0,0,0-2.331,3.607,13.894,13.894,0,0,0-.852,5.086q0,5.915,2.913,8.828t8.246,2.912a11.246,11.246,0,0,0,4.706-.851,6.637,6.637,0,0,0,2.6-1.882h0Zm11.294,2.285h3.72V128.772h7.439v-3.316H107.247v3.316h7.485v19.089Zm15.865,0h9.815q4.615,0,6.767-1.637a5.886,5.886,0,0,0,2.152-5,6.933,6.933,0,0,0-.381-2.468,4.437,4.437,0,0,0-1.031-1.615,4.159,4.159,0,0,0-1.569-.942,9.972,9.972,0,0,0-1.994-.449,4.9,4.9,0,0,0,2.846-1.767,5.563,5.563,0,0,0,1.008-3.468,4.474,4.474,0,0,0-1.681-3.736q-1.68-1.32-5.938-1.32H130.6v22.4Zm3.72-3.226v-6.811h6.722a6.758,6.758,0,0,1,3.362.7,3.458,3.458,0,0,1-.023,5.277,7.359,7.359,0,0,1-4.011.835h-6.05Zm0-9.948v-5.96l5.826-.045a7.772,7.772,0,0,1,3.227.516,2.161,2.161,0,0,1,1.075,2.173,2.733,2.733,0,0,1-1.254,2.6,6.771,6.771,0,0,1-3.362.717h-5.512Zm25.591-8.962a9.546,9.546,0,0,0-3.5,2.151,10.043,10.043,0,0,0-2.331,3.607,13.892,13.892,0,0,0-.851,5.086q0,5.915,2.913,8.828t8.246,2.912a14.116,14.116,0,0,0,5.356-.851,7.421,7.421,0,0,0,2.891-1.882v-4.347a7.155,7.155,0,0,1-2.958,2.734,11.018,11.018,0,0,1-5.289,1.12,7.4,7.4,0,0,1-5.2-1.725A7.752,7.752,0,0,1,157.039,138h17.166v-2.42q0-5.018-2.622-7.8a9.531,9.531,0,0,0-7.283-2.778A13.019,13.019,0,0,0,159.908,125.725Zm8.829,4.167a6.423,6.423,0,0,1,1.748,4.885v0.044h-13.4a7.462,7.462,0,0,1,2.2-4.929,7.218,7.218,0,0,1,5.02-1.658A6.189,6.189,0,0,1,168.737,129.892Zm26.487,17.969h3.72v-22.4h-3.72v9.365H183.392v-9.365h-3.72v22.4h3.72v-9.724h11.832v9.724Zm26.442,0h3.72v-22.4h-3.72v9.365H209.834v-9.365h-3.72v22.4h3.72v-9.724h11.832v9.724Zm14.207,0,0.4-.537,12.19-16.267v16.8h3.72v-22.4h-3.272l-12.638,16.67v-16.67h-3.72v22.4h3.316Zm23.485,0h3.72v-9.9h4.033l8.067,9.9h4.706l-9.68-11.847,8.2-10.558h-4.257l-7.037,9.365h-4.033v-9.365h-3.72v22.4Zm25.367-15.415a9.2,9.2,0,0,1,3.07-3.047,8.552,8.552,0,0,1,4.549-1.165,10.258,10.258,0,0,1,2.218.224,4.284,4.284,0,0,1,1.726.784,3.729,3.729,0,0,1,1.12,1.5,6.052,6.052,0,0,1,.4,2.374v1.793h-5.334a24.49,24.49,0,0,0-3.989.291,8.241,8.241,0,0,0-2.958,1.031,5.021,5.021,0,0,0-1.86,1.972,7.664,7.664,0,0,0,1.367,8.267,7.929,7.929,0,0,0,5.379,1.748,9.259,9.259,0,0,0,4.683-1.143,6.874,6.874,0,0,0,2.891-3.025v3.809h3.54V133.074a10.239,10.239,0,0,0-.627-3.832,5.976,5.976,0,0,0-1.815-2.487,7.3,7.3,0,0,0-2.891-1.344,16.777,16.777,0,0,0-3.854-.4,14.434,14.434,0,0,0-4.549.649,10.672,10.672,0,0,0-3.07,1.5v5.287Zm3.227,11.293a3.48,3.48,0,0,1-1.121-2.689A2.521,2.521,0,0,1,288.2,138.5a11.343,11.343,0,0,1,4.415-.628h5.2v2.42a4.758,4.758,0,0,1-.471,1.345,5.049,5.049,0,0,1-1.143,1.456,6.634,6.634,0,0,1-1.95,1.187,7.514,7.514,0,0,1-2.89.493A4.887,4.887,0,0,1,287.952,143.739ZM329,147.861h3.72v-22.4h-3.809l-8.2,11.875-8.336-11.875h-4.034v22.4h3.72V130.923l7.664,11.2h1.658l7.619-11.2v16.938Zm22.543,0h9.816q4.615,0,6.767-1.637a5.888,5.888,0,0,0,2.151-5,6.911,6.911,0,0,0-.381-2.468,4.435,4.435,0,0,0-1.03-1.615,4.159,4.159,0,0,0-1.569-.942,9.972,9.972,0,0,0-1.994-.449,4.906,4.906,0,0,0,2.846-1.767,5.563,5.563,0,0,0,1.008-3.468,4.474,4.474,0,0,0-1.681-3.736q-1.68-1.32-5.938-1.32h-9.995v22.4Zm3.72-3.226v-6.811h6.723a6.751,6.751,0,0,1,3.361.7,3.459,3.459,0,0,1-.022,5.277,7.359,7.359,0,0,1-4.011.835h-6.051Zm0-9.948v-5.96l5.827-.045a7.775,7.775,0,0,1,3.227.516,2.161,2.161,0,0,1,1.075,2.173,2.734,2.734,0,0,1-1.255,2.6,6.766,6.766,0,0,1-3.361.717h-5.513Zm58.577,3.719a11.265,11.265,0,0,1-1.748,2.4,11.759,11.759,0,0,1-2.532,2.016,13.433,13.433,0,0,1-3.272,1.389,14.463,14.463,0,0,1-3.966.516,13.207,13.207,0,0,1-5.154-1.031,10.721,10.721,0,0,1-3.742-2.666,11.2,11.2,0,0,1-2.264-3.944,15.277,15.277,0,0,1-.762-4.907,14.719,14.719,0,0,1,.852-5.13,11.447,11.447,0,0,1,2.42-3.966,10.54,10.54,0,0,1,3.832-2.554,13.705,13.705,0,0,1,5.087-.9,10.994,10.994,0,0,1,3.361.516,13.337,13.337,0,0,1,2.958,1.344,12.5,12.5,0,0,1,2.376,1.882,11.833,11.833,0,0,1,1.7,2.173v-6.318a7.252,7.252,0,0,0-1.524-1.1,14.6,14.6,0,0,0-2.308-1.03,18.4,18.4,0,0,0-2.981-.762,20.759,20.759,0,0,0-3.585-.292,18.418,18.418,0,0,0-6.88,1.21,14.979,14.979,0,0,0-5.154,3.361,14.472,14.472,0,0,0-3.249,5.086,17.89,17.89,0,0,0-1.121,6.431,18.761,18.761,0,0,0,1.143,6.721,14.085,14.085,0,0,0,3.25,5.086,14.437,14.437,0,0,0,5.131,3.227,20.466,20.466,0,0,0,10.667.762,19.714,19.714,0,0,0,3.272-.964,13.808,13.808,0,0,0,2.532-1.3,7.429,7.429,0,0,0,1.658-1.434v-5.826Zm29.4,9.455h4.034V116.494h-4.034v13.443H424.152V116.494h-4.034v31.367h4.034V133.522h19.092v14.339Zm34.6-31.367h-21.6v31.367h4.033V120.078h12.639Z"/>
</svg>
